<?xml version="1.0" encoding="UTF-8" standalone="no"?>
<!-- Created with Inkscape (http://www.inkscape.org/) -->

<svg
   width="68.883629mm"
   height="70.586624mm"
   viewBox="0 0 68.883628 70.586624"
   version="1.1"
   id="svg1027"
   sodipodi:docname="network_francesouthwest_logo.svg"
   inkscape:version="1.2.1 (9c6d41e410, 2022-07-14)"
   xmlns:inkscape="http://www.inkscape.org/namespaces/inkscape"
   xmlns:sodipodi="http://sodipodi.sourceforge.net/DTD/sodipodi-0.dtd"
   xmlns="http://www.w3.org/2000/svg"
   xmlns:svg="http://www.w3.org/2000/svg">
  <sodipodi:namedview
     id="namedview1029"
     pagecolor="#ffffff"
     bordercolor="#666666"
     borderopacity="1.0"
     inkscape:showpageshadow="2"
     inkscape:pageopacity="0.0"
     inkscape:pagecheckerboard="0"
     inkscape:deskcolor="#d1d1d1"
     inkscape:document-units="mm"
     showgrid="false"
     inkscape:zoom="2.695683"
     inkscape:cx="219.98136"
     inkscape:cy="141.70806"
     inkscape:window-width="1920"
     inkscape:window-height="1127"
     inkscape:window-x="0"
     inkscape:window-y="0"
     inkscape:window-maximized="1"
     inkscape:current-layer="layer1" />
  <defs
     id="defs1024" />
  <g
     inkscape:label="Calque 1"
     inkscape:groupmode="layer"
     id="layer1"
     transform="translate(-1.0045805,-2.3413062)">
    <path
       style="fill:#000000;stroke-width:0.051617"
       d="m 39.854148,2.3417878 c -0.28763,0.12851 -0.55571,0.253622 -0.8441,0.299687 -0.10339,-0.03541 -0.1973,0.02245 -0.28136,-0.04188 -0.217,0.05837 -0.42656,0.155698 -0.65434,0.171437 -0.12848,0.05493 -0.24935,0.127111 -0.38999,0.153115 -0.15595,0.08478 -0.3345,0.02062 -0.49729,0.06543 -0.17197,0.01289 -0.33621,0.07021 -0.50647,0.08899 -0.0975,10e-4 -0.20083,0.05485 -0.28921,0.10862 -0.16739,-0.0114 -0.30172,0.101216 -0.45804,0.132177 -0.15792,0.04585 -0.32676,0.108208 -0.43972,0.23687 -0.19391,0.114233 -0.27149,0.380762 -0.51169,0.421394 -0.0799,0.02921 -0.22378,-2.58e-4 -0.24603,0.102077 0.0523,0.248736 0.189,0.497615 0.12302,0.757725 -0.005,0.211383 -0.21159,0.35547 -0.18845,0.570583 0.0293,0.263971 0.086,0.525201 0.0707,0.79175 -0.0229,0.115909 0.0555,0.191552 0.12694,0.265662 0.1017,0.144277 -0.082,0.0369 -0.11778,0.121707 -0.0297,0.289313 -0.0119,0.584321 -0.0694,0.87027 -0.0501,0.09249 -0.0575,0.213477 0.0471,0.270897 0.0456,0.02053 0.10305,0.04332 0.14003,0.07329 l 0.15835,0.05366 0.0236,0.0157 0.0523,0.07328 0.0144,0.0065 0.0222,0.02617 0.0183,0.06413 0.017,0.0065 0.0667,0.04057 0.004,0.01178 0.0798,-0.0458 0.005,-0.01047 h 0.0458 l 0.0301,-0.01963 0.0157,-0.0065 0.10731,-0.01963 0.0105,-0.0065 0.005,-0.0039 0.0497,-0.04711 0.0183,-0.01047 0.0667,-0.01701 0.0275,-0.02617 0.034,-0.01178 0.12956,0.0144 h 0.003 l 0.0223,0.0013 h 0.003 0.0419 l 0.0222,-0.0013 0.0262,0.0092 0.0746,0.05627 10e-4,0.0013 0.0131,0.01047 0.12171,0.04842 0.0209,0.0039 0.0223,0.02225 0.0838,0.04711 0.0183,0.02225 0.0275,0.07459 0.0445,0.02356 0.0157,-0.0013 0.0222,0.0065 0.0288,0.01701 0.009,0.0144 0.0602,0.0039 0.10208,-0.123015 0.0223,-0.01309 0.0275,-0.0065 0.0353,0.0079 0.0968,0.07852 0.0144,0.03664 -0.001,0.02356 -0.004,0.01439 -0.0209,0.04842 -0.0157,0.01832 -0.10076,0.06936 0.0236,0.03664 0.007,-0.0052 0.0131,-0.0065 0.0209,-0.0065 0.0458,0.01178 0.0458,0.05365 0.1191,0.04842 0.009,0.0052 0.034,0.02487 0.007,0.0052 0.008,0.0092 0.0262,0.01047 0.0641,-0.01047 0.0288,0.0052 0.0419,0.02617 0.007,0.0039 0.0183,0.01701 10e-4,0.0013 0.0497,0.04711 0.0314,0.0065 h 0.003 l 0.0249,-0.0013 0.0249,0.0052 0.0576,0.03534 0.0131,0.01047 0.0131,0.01963 -0.007,0.05496 -0.0576,0.05104 v 0.0052 l 0.0196,0.0301 10e-4,0.0301 0.051,0.0458 0.003,0.0026 0.017,0.01963 0.0105,0.02487 0.003,0.04842 0.034,-0.0065 0.072,0.0157 0.0183,-0.02748 0.0523,-0.0144 0.0877,0.04188 0.0144,0.01047 0.0157,0.01832 0.008,0.01178 0.0144,0.03534 0.0838,-0.0903 0.038,-0.01178 0.009,0.0013 0.0118,-0.0092 0.0301,-0.0092 0.0157,0.0013 0.0406,-0.01309 0.0406,-0.02487 0.008,0.0026 0.0314,-0.01701 0.0196,-0.0052 h 0.0576 l 0.0406,0.03272 0.003,0.01178 0.0209,-0.0092 0.0105,-0.0026 0.0576,-0.0092 0.0733,-0.08768 0.051,-0.01047 0.0968,0.04842 0.0157,0.01309 0.0131,0.01832 0.003,0.0026 0.0196,0.02225 0.0733,-0.03926 0.0275,0.0013 -0.0183,-0.02617 -0.0406,-0.01832 -0.008,-0.02356 0.0288,-0.05366 0.068,-0.01832 0.0157,-0.01178 0.0576,0.01178 0.0105,0.0157 0.001,0.0013 0.009,0.0157 0.11124,0.176671 0.007,-0.03272 0.009,-0.01701 0.0523,-0.06151 0.0432,-0.01309 0.007,0.0013 0.003,0.0013 0.0537,-0.04973 0.0144,-0.0092 0.0236,-0.0079 0.0406,0.0065 0.0445,0.03795 0.0641,0.0026 h 0.004 l 0.017,0.0026 0.0432,-0.01309 h 0.003 l 0.0275,-0.0065 0.0484,0.02486 0.0222,0.05758 0.0118,0.01309 0.003,0.0039 0.0183,0.03141 0.068,0.03795 0.0183,0.0013 0.0275,0.0144 0.0196,0.02225 0.0157,0.0144 0.008,0.01047 0.0131,0.02225 0.005,0.02487 -0.001,0.01047 0.004,0.01309 -0.0275,0.05104 -0.0131,0.0039 -0.005,0.0026 -0.0301,0.0157 -0.0183,0.0039 -0.0131,0.0013 -0.0301,0.0144 -0.003,0.0013 -0.0144,0.0065 -10e-4,0.0013 -0.0995,0.06674 -0.0314,0.0065 -0.0223,-0.0052 h -10e-4 l -0.0445,-0.0026 -0.0641,0.03272 -0.004,0.0026 h -10e-4 v 0.0013 l -0.005,0.04449 -0.0262,0.03403 -0.0196,0.0079 h -0.0275 -0.001 l -0.0105,0.02617 -0.0314,0.02748 -0.009,0.0013 0.005,0.04057 -0.009,0.03141 -0.0275,0.03403 -0.0275,0.145263 -10e-4,0.0039 -0.005,0.01832 0.0432,-0.0039 0.0406,0.02356 0.009,0.01832 0.0432,0.02879 0.0196,0.0026 0.034,0.03272 0.0131,0.05496 10e-4,0.0013 0.0641,-0.166202 v -0.0013 l 0.009,-0.02356 0.008,-0.01701 0.0131,-0.03533 0.007,-0.01178 0.017,-0.02225 10e-4,-0.0079 0.038,-0.03795 0.0432,-0.0026 0.0118,-0.0079 10e-4,-0.0013 0.034,-0.02356 0.0209,-0.0079 0.0785,-0.0065 h 10e-4 l 0.0942,-0.02225 0.008,-0.0013 h 0.0262 l 0.0392,0.02356 0.0707,0.153116 0.0222,-0.0144 0.003,-0.0026 -0.009,-0.07721 0.007,-0.02617 0.0262,-0.04319 0.0497,-0.01701 0.0707,0.02617 0.0118,0.0065 0.0236,-0.01178 0.0314,-0.0026 0.0222,0.0079 0.003,0.0013 0.0196,0.0039 0.0288,0.05889 -0.0196,0.03926 -0.008,0.01178 -0.0563,0.05889 0.005,0.01178 0.001,0.0026 0.007,0.0065 0.0707,0.02879 0.0118,0.01047 0.072,-0.01963 0.0144,-0.0013 0.0798,0.0052 0.0223,0.0079 0.0209,0.01701 0.017,0.03403 v 0.0065 l 10e-4,0.0039 0.009,0.0092 0.0393,0.02094 0.0118,-0.01439 0.051,-0.01178 0.0667,0.03272 0.0144,0.01047 0.0301,-0.0065 0.0262,0.0039 0.0432,0.01963 -0.0105,-0.01047 -0.004,-0.05496 0.0314,-0.03926 0.0196,-0.01309 0.0157,-0.0065 -0.0236,-0.08768 0.0406,-0.05235 h 0.0955 l 0.007,0.0013 0.0249,0.0039 0.0209,0.0092 0.0916,0.07983 0.009,0.0092 0.004,0.0065 0.0471,0.01047 0.0628,-0.02094 0.0458,0.01309 0.0157,0.02094 0.008,0.03272 -0.0118,0.06805 -10e-4,0.0065 0.007,0.01309 0.003,0.0079 0.009,0.04188 -0.003,0.02487 -0.0393,0.09161 -0.008,0.01178 -0.0537,0.05758 -0.004,0.0039 10e-4,0.01832 0.008,0.01832 -0.0118,0.04842 -0.0798,0.06805 0.005,0.0065 v 0.0013 l 0.001,0.0026 0.0851,-0.01309 0.017,-0.02617 0.0275,-0.01963 0.0563,-0.01047 0.0406,-0.05889 0.001,-0.0013 0.0157,-0.02094 0.0537,-0.0026 0.0694,-0.03403 0.0183,0.0026 0.017,-0.03272 0.0131,-0.0157 0.0654,-0.0458 0.0249,-0.0079 0.0275,0.0013 0.0419,0.04188 -0.003,0.09161 0.0196,0.0052 0.0275,0.02225 0.0615,0.11909 v 0.03795 l -0.0209,0.04319 0.068,-0.03926 0.0236,-0.0052 0.072,0.0052 0.0105,-0.06282 0.0641,-0.02879 0.0366,0.02356 0.003,-0.0026 0.003,-0.01047 0.0144,-0.02225 0.0222,-0.01701 0.0223,-0.0079 0.0275,-0.0026 0.017,0.0013 0.0445,0.0144 0.0223,0.0079 0.0196,0.0157 0.0262,0.03664 0.0602,-0.04057 0.0105,-0.0052 0.0236,-0.0079 0.003,-0.0013 0.0393,-0.0157 0.004,-0.0026 0.0118,-0.0065 0.0249,-0.02356 0.0366,-0.01047 0.0523,0.0092 0.005,0.0026 0.001,-0.0013 0.0222,-0.0065 0.0222,0.0013 0.12433,0.03926 0.007,0.0026 0.017,0.0092 0.004,0.0013 0.003,0.0013 0.0641,0.02094 0.008,0.0052 0.0327,-0.02094 0.0105,-0.0144 0.072,0.0065 0.0236,0.04842 0.0798,0.04319 0.0209,0.0301 0.005,0.03272 0.0314,0.04319 0.001,0.0013 0.10992,-0.0052 0.0419,0.04711 0.0209,-0.0013 0.0144,-0.0079 0.0576,0.01832 0.0183,0.03664 0.1204,-0.03403 0.13087,-0.08899 0.0432,-0.0026 0.009,0.0052 0.0353,-0.01309 0.0327,0.0026 0.004,0.0013 0.017,0.01832 0.0471,-0.02748 0.0249,0.0052 0.0183,0.0039 0.003,0.0013 0.0183,0.0052 0.0249,0.01701 0.0393,0.06151 -0.005,0.0157 0.017,0.01047 0.0602,-0.0144 h 10e-4 l 0.0223,-0.0065 0.0236,-0.0065 h 0.0222 l 0.0877,0.02356 0.0209,-0.0052 0.0249,-0.04973 0.0157,-0.01701 0.0183,-0.01178 0.004,-0.02748 0.0157,-0.02094 0.0314,-0.01832 0.11254,-0.0052 0.0236,0.0052 0.0576,0.03533 h 10e-4 l 0.0209,-0.01701 0.0497,-0.0026 0.0772,0.05104 0.0366,-0.0026 0.0327,0.01309 0.0196,0.01832 0.004,0.01178 0.26828,0.0157 0.004,0.0013 h 0.004 l 0.0615,-0.06674 0.005,-0.01178 0.001,-0.0039 0.004,-0.01309 0.0314,-0.02617 0.0981,-0.02225 0.0536,-0.08506 0.0236,-0.01832 0.051,-0.0144 0.009,-0.0013 0.0275,-0.0013 0.007,0.0013 0.0602,0.0065 0.0183,0.0079 0.0419,0.02748 0.004,0.0026 0.0131,0.01178 0.0707,0.02094 0.0183,0.01309 0.072,0.07983 0.009,0.01963 0.003,0.01309 0.004,-0.0026 0.0183,-0.0144 0.0118,-0.0065 0.0209,-0.0079 0.007,-0.0026 0.0628,-0.03534 0.0366,-0.0013 0.0183,0.0079 0.003,-0.05889 0.009,-0.02486 0.0406,-0.04842 0.0262,-0.01439 0.0157,-0.0013 0.18452,-0.07983 0.007,-0.0013 0.0157,-0.0039 0.0183,-0.0157 0.0602,0.0052 0.0262,0.03272 0.106,0.05758 0.0118,0.01047 0.007,0.0079 0.11779,0.0157 0.0183,0.0079 0.0223,0.01439 0.0105,0.01178 0.055,-0.01178 0.0314,0.0052 0.0877,0.05627 0.004,0.0013 0.0667,-0.04449 0.0118,-0.0065 0.0249,-0.0079 0.0406,0.01047 0.0497,0.04711 0.0982,0.01963 0.0118,0.0052 0.072,0.04057 0.0209,0.02748 0.005,0.02617 -0.007,0.01047 0.009,0.0065 0.0157,0.03141 10e-4,0.03403 0.106,-0.06674 0.0105,-0.01309 0.0222,-0.0144 0.10732,-0.02617 0.0105,-0.0013 0.0288,0.0013 0.0105,0.0065 0.14265,-0.111237 0.0471,-0.0026 0.0379,0.02225 0.0183,0.02094 0.009,0.02487 0.001,0.0039 0.0209,0.0746 -0.003,0.02748 -0.0759,0.179289 10e-4,0.02094 0.0903,-0.0039 0.0406,0.02486 0.0183,0.04449 h 0.0262 l 0.0262,0.0092 0.0249,0.01832 0.0576,-0.02225 0.0249,-0.0013 0.15965,0.03664 h 0.003 l 0.0262,0.0092 0.0275,0.02617 0.0131,0.03795 0.0458,-0.0079 h 0.0157 l 0.017,0.0039 0.15311,-0.04057 0.004,-0.0013 0.10338,-0.05496 c 0.0168,-0.046 0.0177,-0.09067 -0.0458,-0.133486 -0.054,-0.09231 0.0337,-0.20776 0.0995,-0.264353 0.12304,0.0355 0.14145,-0.09027 0.22378,-0.133485 0.10872,-0.0012 0.15325,-0.122639 0.0628,-0.188449 -0.0825,-0.07954 -0.1324,-0.182214 -0.0929,-0.293145 0.0145,-0.114799 -0.17312,-0.11758 -0.22901,-0.05104 -0.14881,0.03444 -0.0893,-0.0935 -0.0929,-0.176672 0.114,-0.03317 0.0545,-0.150643 0.10207,-0.234253 0.0608,-0.06905 -0.0714,-0.212016 0.055,-0.223784 0.0577,-0.08542 0.0988,-0.199479 0.21593,-0.22771 0.13446,-0.08602 -0.0249,-0.245899 -0.14003,-0.240797 -0.0345,-0.123636 -0.17989,-0.06402 -0.0982,0.0445 0.0514,0.106512 -0.17524,0.122338 -0.13741,-0.0039 -0.10454,-0.05474 -0.0369,-0.209417 -0.15573,-0.261735 -0.0547,-0.09091 -0.15846,-0.0558 -0.20416,-0.150498 -0.11236,-0.04449 -0.13508,-0.158488 -0.19237,-0.249958 -0.12182,0.04438 -0.24054,0.105936 -0.37297,0.09684 -0.11351,0.05284 -0.23956,0.138099 -0.36905,0.09422 -0.032,-0.101052 -0.15828,-0.07662 -0.21332,-0.160967 -0.0919,-0.04121 -0.16293,0.05737 -0.25519,-0.0026 -0.10406,0.01619 -0.21472,-0.03567 -0.30623,0.04057 -0.0894,0.04472 -0.0796,0.180986 -0.10731,0.269588 -0.12033,-0.115309 -0.0681,0.14416 -0.18976,0 -0.0946,-0.131172 -0.12066,-0.297691 -0.17275,-0.442333 0.061,-0.09968 0.10081,-0.214416 0.0497,-0.329787 -0.0114,-0.102962 0.0237,-0.219761 -0.0563,-0.304922 -0.0242,-0.09337 -0.15233,-0.117631 -0.16882,-0.223784 -0.0422,-0.06337 -0.14308,-0.166645 -0.20677,-0.07198 -0.1198,-0.08202 -0.26653,-0.05768 -0.38868,0.0092 -0.13315,-0.01244 -0.0483,-0.169607 0.005,-0.219857 -0.0375,-0.04862 -0.20429,-0.136816 -0.24734,-0.05627 -0.0362,0.102439 -0.12101,0.143965 -0.22379,0.140029 -0.11651,0.0082 -0.21406,0.09342 -0.32848,0.09553 -0.0704,-0.09505 -0.19693,-0.101059 -0.28398,-0.175362 -0.098,-0.0167 -0.12462,-0.124131 -0.18583,-0.17798 -0.0124,-0.133558 0.0259,-0.268351 0.0144,-0.403073 -0.0114,-0.112076 -0.13918,-0.166394 -0.12171,-0.281366 -0.0238,-0.103485 -0.10205,-0.207709 -0.0733,-0.312774 0.1242,-0.04533 0.054,-0.116553 0.0223,-0.194993 0.0437,-0.112696 -0.0968,-0.160202 -0.1819,-0.137411 -0.0802,-0.05328 -0.0912,-0.14364 -0.13087,-0.21724 -0.0356,-0.110911 -0.11587,-0.193264 -0.14526,-0.308848 -0.0683,-0.07605 -0.23006,-0.07592 -0.28922,-0.03795 -0.0528,0.09383 -0.17753,0.115977 -0.26043,0.06151 -0.102,0.0024 -0.15555,0.110789 -0.26435,0.08768 -0.0808,0.02143 -0.15295,0.121626 -0.22902,0.106003 -0.0638,-0.05285 -0.18281,0.07722 -0.10993,0.132176 -0.0907,0.04947 -0.0369,0.171878 -0.13741,0.217241 -0.0573,0.153646 -0.10844,0.05305 -0.17929,-0.01701 -0.10866,0.02628 -0.15367,-0.08453 -0.23426,-0.115164 -0.13727,0.06829 -0.3427,-0.02331 -0.29968,-0.194992 -0.0938,-0.04366 -0.13621,-0.107416 -0.14919,-0.205463 -0.0947,-0.02601 -0.15432,-0.09524 -0.20416,-0.171437 0.0641,-0.14609 -0.13482,-0.143738 -0.22509,-0.154423 -0.0652,-0.04342 -0.15945,0.113929 -0.22901,0 -0.0407,-0.07741 -0.0228,-0.201165 -0.13873,-0.215932 -0.009,-0.08403 0.0725,-0.178605 0.0353,-0.281366 -0.0184,-0.09163 -0.0216,-0.188583 -0.10077,-0.24734 0.0249,-0.08862 0.12511,-0.136589 0.15181,-0.223784 0.10446,-0.01805 0.007,-0.165246 -0.0419,-0.209389 -0.0172,-0.103851 -0.0697,-0.165057 -0.17143,-0.188449 -0.10427,-0.131137 -0.0792,-0.324797 -0.12826,-0.481593 -0.0101,-0.07683 -0.0318,-0.15947 -0.0851,-0.217241 z"
       id="Nord-pas-de-calais" />
    <path
       style="fill:#000000;stroke-width:0.051617"
       d="m 28.017158,15.04774 c 0.0358,0.411272 0.14221,0.770175 0.0811,1.111067 0.54765,-0.374407 0.0126,0.429333 0.1361,0.393913 0.456,0.08552 0.15713,0.612816 0.48028,0.745946 -0.23584,0.225759 0.0335,0.489867 -0.26958,0.607226 0.3808,0.157324 0.41373,0.649609 0.0628,1.022078 0.1754,0.618625 1.1303,-0.111274 1.17781,0.498606 -0.15662,0.377297 1.16322,0.508458 0.74595,1.09798 -0.0571,0.02323 0.12859,0.496795 0.34811,0.223784 0.2544,-0.466175 0.9022,-0.129291 1.22754,-0.590214 0.31919,0.245205 0.27678,-0.532253 0.55488,-0.08899 0.33496,-0.03815 0.90036,0.228462 1.06657,-0.172746 -0.35447,-0.564445 0.88664,-0.44224 0.42794,-1.012917 0.2414,-0.06386 0.43439,-0.373867 0.089,-0.352034 0.1636,-0.250803 -0.37845,-0.769176 0.18976,-0.677895 0.11147,-0.233205 0.8072,-0.004 0.78913,-0.616387 0.12295,-0.379585 0.20888,-1.30872 0.73809,-0.842789 -0.0534,-0.356616 -0.16147,-0.840787 -0.41877,-1.201366 0.0636,-0.34498 0.70498,-0.847136 0.0929,-0.634709 -0.11236,-0.196491 0.13812,-0.542823 -0.19761,-0.649103 0.1293,-0.243869 0.0147,-0.639305 0.26959,-0.878123 -0.46776,0.363369 -0.0809,-0.643348 0.18845,-0.552262 -0.4232,-0.401154 -0.21857,-1.183939 -0.93047,-1.332234 -0.2623,-0.371801 -0.75428,-0.679317 -0.90953,-0.943557 -1.60374,1.302019 -4.12004,1.205523 -5.927,2.457697 -2.66757,1.131938 0.0986,2.956053 0.6843,2.206561 l -0.35059,0.12812 z"
       id="Haute-normandie" />
    <path
       style="fill:#000000;stroke-width:0.051617"
       d="m 18.085598,21.130474 c 0.33204,0.407066 0.25559,1.030205 0.73286,1.251096 0.35192,0.187205 0.59491,-0.273777 0.80353,-0.439716 0.30603,-0.376301 0.77994,0.206604 1.18043,0.07852 0.39386,0.282455 0.58949,-0.104296 0.99983,0.115164 0.32671,0.103295 0.50182,0.597797 0.68182,0.361194 1.6e-4,-0.185484 0.55972,-0.360185 0.49337,0.02879 0.48906,-0.199311 0.82723,-0.64909 1.37935,-0.426628 0.13355,0.255794 0.41836,-0.266777 0.57974,-0.0903 -0.008,-0.258862 0.30287,-0.549224 0.53787,-0.18845 0.38953,0.09235 -0.11993,0.615946 0.35334,0.709303 0.62923,-0.368487 0.0323,0.873916 0.60592,0.401765 0.27855,0.343738 0.40217,-0.393775 0.74856,-0.318009 0.0387,-0.325076 1.07616,-0.549304 1.24456,0.06936 -0.0159,0.456468 0.0306,1.069061 0.61245,0.943556 10e-4,0.369516 0.56683,0.645264 0.83625,0.321935 0.27459,0.203226 0.56773,0.961615 0.84541,0.365121 -0.10991,-0.445584 -0.40025,-0.511833 -0.22902,-0.862418 0.35358,-0.235688 0.89117,-0.274626 0.99198,-0.798294 -0.3901,-0.30861 0.19142,-0.564005 -0.21855,-0.796984 -0.0889,-0.259225 -0.70099,-0.384202 -0.5575,-0.83232 -0.16497,-0.132528 -0.5909,-0.690461 -0.47505,-0.46458 0.6614,-0.556563 -0.8477,-0.649312 -0.65565,-1.20791 -0.15253,-0.205753 -0.35603,0.09809 -0.70799,-0.102076 -0.4075,0.167252 -0.55953,-0.492527 -0.2421,-0.740712 0.30799,-0.432792 -0.61003,-0.427471 -0.15836,-0.790442 0.0178,0.06118 0.004,-0.469546 0.0733,-0.476358 -0.31355,-0.101661 0.1038,-0.628542 -0.38999,-0.647795 0.10971,-0.53059 -0.37362,-0.746525 -0.0903,-0.527397 -0.22622,-0.231697 0.18907,-1.244502 -0.53655,-0.939631 -1.90474,1.927928 -4.26967,0.280272 -6.54601,0.229018 -0.74152,0.879405 -2.15579,-1.43929 -1.25161,-1.657965 0.18456,-1.510631 -1.94213,0.185415 -2.90375,-0.604628 -1.4025,-0.832634 0.12948,1.41633 -0.0494,2.3843 0.92592,-0.01496 0.4104,1.155655 1.35032,1.187381 -0.56621,1.124762 0.0902,1.510328 -0.004,1.808183 -0.14876,0.923356 -0.28204,2.322625 1.06496,2.619702 -0.39509,-0.04161 -0.7017,0.1921 -1.1003,0.03822 z"
       id="Basse-normandie" />
    <path
       style="fill:#000000;stroke-width:0.051617"
       d="m 48.401118,10.862589 c -0.3414,0.120029 -1.12774,0.04189 -0.89513,-0.465889 -0.41209,0.364421 -0.55963,0.03102 -0.93309,0.01309 -0.31546,-0.192212 -0.70798,-0.210401 -0.86503,0.03926 -0.30138,0.10715 -0.55666,-0.341884 -0.84279,0.12825 -0.45024,-0.249031 -0.77444,0.117728 -1.13725,-0.04449 -0.31367,0.0086 -0.75665,0.127865 -1.01291,-0.15835 -0.48533,-0.221049 -0.83579,0.135402 -1.22231,0.129559 0.24938,-0.5861122 -0.30743,-0.02378 -0.59152,-0.15835 0.27613,-0.213888 0.16649,-0.6786872 -0.0811,-0.5143102 0.10589,0.4758892 -0.53119,0.04036 -0.82184,-0.01047 -10e-4,-0.320825 -0.75385,-0.45689 -0.46328,-0.142645 -0.22179,0.101725 -0.22467,0.5985692 -0.46981,0.206771 -0.39202,-0.316355 0.36074,-0.639822 0.47504,-0.751181 -0.25275,-0.404663 -0.60082,0.149669 -0.74594,-0.132177 -0.30387,0.135245 -0.72976,0.007 -1.0561,0.219858 -0.20173,-0.03822 -0.49206,-0.178896 -0.43449,-0.450185 -0.29481,-0.166706 -0.85617,-0.228577 -0.59806,-0.575818 -0.3456,0.420316 -0.72135,-0.579772 -1.15425,-0.116472 -0.50438,0.347018 -1.13157,-0.900515 -0.99926,0.532408 1.73605,0.779576 -1.1271,0.455254 -0.65491,1.5261412 0.35438,-0.08346 0.29626,0.407929 0.62816,0.547028 0.5119,0.436416 1.09081,0.742114 1.14509,1.46441 0.10887,0.215369 0.39603,0.445359 -0.003,0.45542 -0.0384,0.244277 -0.45293,0.55451 0.0157,0.366429 0.0759,0.278711 -0.30133,0.398654 -0.16359,0.704069 -0.0671,0.189475 0.24373,0.635739 0.12302,0.823159 0.45227,-0.304827 0.19016,0.393819 -0.0576,0.516927 -0.0452,0.284599 0.27768,0.622617 0.29707,1.053486 0.36677,0.639603 -0.35104,0.09356 -0.42271,0.426629 0.31274,0.137076 5.2e-4,0.569006 0.49076,0.396529 0.51137,0.280218 1.03418,-0.01452 1.53769,-0.160967 0.20927,0.324972 0.7232,0.09486 0.78128,0.410925 0.29121,-0.08531 0.44175,-0.494149 0.66089,-0.03272 0.45961,-0.103384 0.75756,0.532287 0.96319,0.2866 0.15266,0.594995 0.60668,-0.238439 0.81399,0.412233 0.28606,-0.05061 0.30423,0.03914 0.53525,-0.232944 0.39294,0.233201 0.81881,0.08022 1.13462,0.03533 0.23176,-0.0498 0.50631,-0.311005 0.83625,-0.01963 -0.15211,0.20481 0.82902,1.180094 0.15311,0.670043 0.28756,0.129197 0.25958,0.614185 0.58498,0.460655 0.25919,0.426757 0.34652,0.321652 0.49861,0.531323 0.27713,0.312537 0.40144,0.242733 0.57451,-0.212006 0.45191,-0.127159 0.37393,-0.635677 0.81531,-0.823158 -0.1387,-0.203413 -0.77042,-0.08499 -0.32456,-0.46589 0.16712,-0.06629 -0.3057,-0.767633 0.37167,-0.620313 0.32452,0.11783 0.43831,-0.121995 0.0694,-0.23687 -0.35313,-0.244555 -0.24043,-0.581231 -0.20285,-0.61377 -0.34679,-0.485012 0.48796,-0.562179 0.78783,-0.725008 0.35675,0.23814 0.18573,-0.276303 0.60853,-0.345491 0.26383,0.06456 0.6575,0.614693 0.66351,0.0026 -0.0358,-0.354904 -0.0994,-0.737436 0.12431,-0.988051 -0.0305,-0.590522 -0.33905,-0.200443 -0.15835,-0.774738 0.48325,0.16863 0.35859,-0.308169 0.67528,-0.459346 0.30012,-0.201097 0.44198,-0.447772 0.22902,-0.668734 -0.0206,-0.299186 0.43459,-0.775847 0.0249,-0.99983 0.12915,-0.384144 0.0765,-0.34467 -0.30754,-0.459346 z"
       id="Picardie" />
    <path
       style="fill:#000000;stroke-width:0.051617"
       d="m 34.217668,18.846831 c 0.34289,-0.0067 0.35189,0.403406 0.45542,0.558806 0.22476,0.221707 -0.0808,0.782678 0.25258,0.939631 -0.39956,0.38906 0.0953,0.687769 0.32324,0.994595 0.23138,-0.04348 0.0895,0.381612 0.46328,0.367738 0.0111,0.45743 0.35492,1.129736 0.89906,0.912148 -0.11833,0.392577 0.4151,0.34197 0.19761,0.803528 -0.2616,0.549927 0.51922,0.413204 0.77997,0.3468 0.40111,-0.03091 0.54296,-0.491913 0.77735,-0.03795 0.27695,-0.22003 1.12129,0.101819 0.81008,-0.02356 -0.15257,0.565034 0.79599,0.337272 0.47766,0.918692 -0.0872,0.09491 -0.64984,0.609852 0.0811,0.452802 0.36161,-0.327891 1.0562,0.363899 1.29036,-0.269587 0.33823,-0.251205 0.0294,0.438427 0.44364,0.181906 0.47856,-0.441164 1.08503,-0.01829 1.06526,0.484211 0.56363,0.288861 0.43106,1.013137 -0.18321,1.214453 -0.12263,0.346775 0.0796,0.449329 0.0353,0.783898 -0.12044,0.413345 -1.11703,0.04322 -0.91346,0.730242 0.33351,0.118455 0.54399,0.466262 0.46328,0.867653 0.51141,0.443365 -1.04669,0.13024 -0.24997,0.774737 0.59132,0.480242 -0.50615,1.166695 0.13742,1.503671 0.46051,0.368167 0.48651,1.035688 0.59675,1.591352 -0.15497,0.347338 0.44594,0.470118 0.17144,0.887283 0.0552,0.362838 -0.0572,0.765748 -0.0288,1.152945 -0.29237,0.324378 -0.91699,0.08265 -1.13332,0.689674 -0.67869,0.126628 -0.57353,-0.06527 -0.73809,-0.0092 -0.0783,0.230355 -0.51319,0.409164 -0.43971,0.527397 -0.52042,-0.03917 0.16693,1.149904 -0.15835,0.619005 0.25797,0.522884 -0.521,0.425774 -0.83102,0.442333 -0.60017,-0.03087 -0.62553,0.643473 -0.93831,0.76165 -0.53838,-0.0072 -0.97329,0.189306 -1.4618,-0.100768 -0.38585,-0.04911 -0.71457,0.190094 -1.01423,-0.11909 -0.35982,-0.0015 -0.10228,0.807283 -0.57843,0.307539 -0.27253,0.503092 -0.22745,-0.337534 -0.58105,0.08376 -0.16817,-0.398979 -0.5431,0.196053 -0.77474,0.418777 -0.14082,-0.392832 -0.51818,-0.462559 -0.69622,-0.18845 -0.36256,-0.0063 -0.61664,8.36e-4 -0.35072,-0.396529 -0.54448,-0.05483 -0.13858,-0.827039 -0.82316,-0.870271 -0.227,-0.18814 -0.70567,-0.250623 -0.8598,-0.650413 0.36208,-0.508959 -0.0515,-0.895903 -0.42925,-1.264182 0.0112,-0.60491 -0.70658,-0.585595 -0.6334,-1.324382 -0.13798,-0.185845 -0.91881,-0.595431 -0.6792,-0.06282 0.16924,0.136973 -0.65543,0.07826 -0.814,0.259118 -0.39433,-0.03223 -0.72153,0.01802 -0.56011,-0.467197 0.0951,-0.538257 -0.36707,-0.543402 -0.69753,-0.507768 0.4646,-0.334341 -1.23632,-0.98156 -0.37559,-0.499915 -0.45947,-0.0152 -0.10339,-0.775951 -0.106,-1.172574 0.45599,-0.516636 0.44135,-0.858129 0.62686,-1.499745 0.18003,-0.290939 -0.1233,-0.511271 0.14788,-0.785207 0.008,-0.508517 0.95875,0.614707 0.86634,-0.08637 -0.36518,-0.556286 0.29952,0.111394 0.40962,-0.318009 0.40109,-0.100984 0.94471,-0.303856 0.63209,-0.607227 0.27551,-0.29847 0.57965,-0.308849 0.74726,-0.658264 0.38301,-0.18823 -0.005,-0.553268 0.25257,-0.768194 0.18038,0.344001 0.21975,-0.713663 0.3023,-0.507768 0.17106,-0.685256 -0.52834,-0.209844 -0.0288,-0.728933 -0.0994,-0.381308 0.47718,-0.852224 0.4227,-0.639943 -0.2949,-0.188072 -0.74562,-0.226686 -0.47635,-0.590214 -0.13695,-0.350768 -0.24835,-1.008277 -0.23426,-0.766885 0.36935,-0.142953 1.05097,-0.403871 1.00637,-0.925235 -0.326,-0.17035 0.18698,-0.612669 -0.16489,-0.748564 -0.29751,-0.337047 -0.74406,-0.515842 -0.59545,-0.998521 0.26641,-0.21875 1.18908,-0.384454 0.82578,-0.344182 0.62138,-0.437376 0.64573,0.427798 0.74725,-0.476359 0.35303,0.285696 0.68289,0.165032 1.11369,0.184524 0.39291,-0.192923 0.006,-0.679917 0.513,-0.782589 0.42991,-0.03317 0.0375,-0.437118 0.21462,-0.564041 z"
       id="Centre" />
    <path
       style="fill:#000000;stroke-width:0.051617"
       d="m 13.335098,30.244105 c 0.11826,-0.570525 0.84282,0.271721 0.84541,-0.527397 0.24354,0.09385 0.79045,0.340444 0.66219,0.11909 0.22381,-0.3406 0.32074,-0.176569 0.37559,-0.558805 -0.009,-0.510931 0.29009,-0.798458 0.76427,-0.947483 0.11838,0.303364 0.66732,-0.386736 1.01946,-0.06151 0.35551,-0.02208 0.70249,-0.08666 0.81269,-0.495988 0.26843,-0.199622 0.80201,-0.181943 0.74464,-0.545719 0.50774,-0.138902 0.86351,0.673984 1.22754,0.299687 0.1593,-0.469192 0.33829,-0.812121 0.51692,-1.320456 0.14635,-0.26521 0.87659,0.03413 0.60069,-0.503841 -0.0867,-0.709669 -0.60906,-1.611789 -0.12433,-2.269247 -0.11001,-0.464888 -0.12659,-0.829558 -0.10731,-1.292973 -0.39257,-0.02798 -0.90585,-0.486457 -1.08358,0.0144 -0.3532,0.306022 -0.6702,0.470217 -1.06527,0.13872 -0.36432,-0.354504 -0.18215,-1.387429 -0.8919,-0.972825 -1.13205,0.437636 -1.29731,-1.544394 -1.94531,-0.09375 0.51634,0.486225 0.27564,1.293743 -0.0563,0.08899 -0.7272,-0.602785 -0.69988,0.747214 -1.13594,-0.0602 -0.27881,-0.327083 -0.8056,-0.521771 -1.6293,0.196302 -0.83035,1.336342 -1.07837,0.0012 -1.78111,-0.654339 -0.41688,-1.360749 -0.75184,-1.671453 -1.04023,-1.106611 -0.7177604,-0.212891 -0.4284904,-0.184798 -1.5640404,0.03742 -0.55474,-0.155788 -1.20287,0.104763 -1.09176,0.810046 0.0799,0.73832 -1.45987,-0.548848 -1.46012,0.318762 -0.10098,0.924125 -0.62224,-1.019058 -1.0797,-0.03868 -0.89951,0.147834 -1.23622,0.126508 -1.85117,0.322321 -1.11428,-0.03597 -0.58971,0.624021 -1.39043,0.520468 -0.64748002,0.148954 -0.88406002,1.741884 -0.14498,1.79139 1.17278,-0.218131 2.47945,-1.054524 1.47591,2.07e-4 0.78651,-0.194967 0.45226,-0.06709 0.98674,0.17798 0.47728,0.225684 -1.54793,-0.672435 -1.59817,-0.115328 -0.66512,-0.141233 -0.0794,1.734291 0.30107,0.676357 1.47433,0.164026 1.16752,1.435535 -0.28791,1.191231 -1.88649002,0.270386 -0.0794,0.423724 0.57864,0.92006 -0.15444,1.554872 1.26445,0.203513 1.39505,0.773428 0.0982,-0.703949 1.36531,-0.353664 0.96186,-0.02167 0.26328,-0.397041 0.95772,0.965407 1.77066,0.615812 0.75602,0.977181 2.11485,0.02606 1.61622,0.434481 -0.16825,0.320679 0.94119,0.867219 0.83284,-0.08637 0.6019904,0.0842 -0.28404,1.1162 0.26775,1.991808 -0.0398,-0.557211 1.3294304,-0.393785 0.8607404,-0.751996 0.0583,-0.684407 0.0167,0.116694 1.01532,-0.361789 0.10727,0.05113 0.99654,-0.008 0.032,0.612561 -0.82458,-0.399691 -0.70168,0.548835 0.36693,0.325115 0.73913,-0.429462 0.42024,-0.05491 1.79621,0.02423 -0.30281,-0.02119 -1.0466,0.05863 -0.49851,0.38613 z"
       id="Bretagne" />
    <path
       style="fill:#808080;stroke-width:0.051617"
       d="m 22.593998,46.419364 c 0.38371,0.326859 0.90027,-0.398577 0.82316,0.244721 0.48337,-0.04814 1.0382,0.18754 0.81138,0.738098 0.0908,0.468863 0.68187,0.1577 0.88597,0.705372 0.38478,0.380387 0.70182,-0.315514 0.97235,0.06544 0.20481,-0.287264 0.17448,-0.738067 0.63602,-0.965806 0.2874,0.105175 0.5294,0.122735 0.6033,-0.273514 0.29253,-0.122771 0.63934,-0.319081 0.35465,-0.745943 0.005,-0.389296 0.32382,-0.598056 0.39784,-0.749872 0.28282,-0.08749 0.61891,-0.327252 0.83624,-0.624241 0.29991,-0.198147 -0.0699,-0.927976 0.48552,-0.756411 0.0905,-0.525565 0.71185,-0.822739 0.81138,-1.290364 0.45351,0.27418 0.52253,-0.585198 0.44364,-0.917379 0.48318,0.18273 0.94382,-0.37764 0.44103,-0.709304 -0.26479,0.176179 -0.53352,-0.342549 -0.32717,-0.604609 -0.058,-0.241699 0.12759,-0.538782 -0.17929,-0.806145 0.22187,-0.321275 0.59304,-0.775514 1.08751,-0.633401 -0.005,-0.47699 0.43876,-0.628032 0.68313,-0.586287 0.22409,-0.212965 0.58067,-0.446017 0.10077,-0.619005 0.006,-0.391857 -0.17749,-0.750605 -0.69491,-0.693599 -0.19652,-0.245442 -0.8756,-0.501783 -0.59545,-1.049559 0.26613,-0.4312 -0.60978,-0.688755 -0.57581,-1.167341 -0.25113,-0.27587 -0.60475,-0.59148 -0.56928,-1.090128 -0.23573,0.03984 -0.50435,-0.476375 -0.54441,-0.117781 0.46018,0.44647 -0.66627,0.106592 -0.80353,0.446258 -0.39939,-0.04488 -0.90997,-0.0088 -0.69098,-0.545718 -0.0642,-0.354755 -0.23691,-0.723702 -0.34287,-0.458037 -0.55801,0.35005 -0.73075,-0.100115 -0.42663,-0.304922 -0.21793,-0.267449 -0.4756,-0.01352 -0.56012,-0.468507 -0.55814,-0.151766 -0.19572,0.81741 -0.74071,0.543102 0.0609,0.508253 -0.78052,0.179338 -0.35727,-0.06151 -0.41029,0.05377 -1.04295,-0.07561 -1.3427,0.26697 -0.39762,0.126176 -0.62914,-0.387917 -0.67659,0.265661 -0.37402,0.39313 -0.87133,0.372924 -1.29951,0.219858 -0.35875,0.180811 -0.63967,0.290413 -0.12433,0.560114 -0.25175,0.469157 0.51006,0.65951 0.57975,0.934396 -0.29808,0.370345 0.36928,0.628606 0.26697,0.954026 0.14242,0.352312 0.214,0.684579 0.27744,1.139859 -0.45856,0.07944 0.22113,0.607074 -0.18584,0.84148 -0.0717,0.227466 0.47318,-0.08603 0.51431,0.299687 -0.27691,0.25495 -0.52913,0.592474 -0.93832,0.526088 -0.24527,0.346895 -0.62855,-0.452694 -0.80745,-0.01309 -0.62434,0.245928 -0.23385,-0.527214 -0.80746,-0.259118 -0.64782,0.247618 -0.54027,0.812029 -1.00268,1.299106 0.51552,-0.361803 1.67502,4.905122 0.60223,1.820782 -0.82454,0.744504 1.18471,2.411238 -0.42663,1.149021 -1.22508,0.991713 1.92029,1.54623 2.22344,2.871239 l 0.17537,0.587598 z"
       id="Poitou-charente" />
    <path
       style="fill:#808080;stroke-width:0.051617"
       d="m 24.772948,65.560083 c -0.13941,-0.451246 0.18572,-1.238313 0.13348,-0.954032 -0.15261,-0.505501 0.42112,-0.601473 0.40308,-0.858489 -0.006,-0.332734 0.33865,-0.619771 0.53394,-0.83886 0.15443,-0.13281 0.2276,-0.377258 0.41616,-0.68313 -0.35558,-0.220875 0.0838,-0.542707 0.23687,-0.579742 -0.30123,-0.156477 0.0163,-1.061685 -0.32456,-0.450188 -0.41393,-0.571953 0.12814,-0.368474 -0.0458,-0.787826 0.002,-0.275036 -0.35009,-0.230171 -0.3023,-0.530014 -0.37998,-0.03667 -0.74346,0.03235 -0.87944,-0.257806 -0.17076,-0.294021 0.25062,-0.420467 0.12564,-0.793065 0.47847,-0.171967 -0.11831,-0.686166 0.26042,-0.910839 0.0739,-0.313749 -0.13009,-0.343775 -0.19891,-0.55095 0.38699,-0.401545 0.78791,-0.149751 1.10583,-0.633398 0.37865,0.166321 0.0961,0.821015 0.51693,0.533937 -0.36933,-0.405488 0.41557,-0.871672 0.48028,-0.486826 0.12326,-0.727774 0.65874,0.06104 0.88859,-0.246033 0.49072,0.01518 0.73501,-0.510982 1.25241,-0.396532 0.31542,-0.482423 0.54119,0.686806 0.78128,0.01309 0.15523,-0.09248 0.27712,-0.422067 0.42008,-0.514312 -0.0932,-0.283651 0.82034,0.137172 0.40439,-0.264351 -0.25568,-0.322684 0.32602,-1.164734 0.38867,-0.807451 -0.22528,-0.222376 -0.50063,-0.275351 -0.27875,-0.646493 0.002,-0.558708 0.43782,0.105547 0.70669,-0.11254 0.49981,-0.09828 -0.14063,-0.597958 -0.0615,-0.926547 -0.40554,-0.512598 0.18417,-0.514301 0.46327,-0.696215 0.11718,-0.253032 0.22198,-0.565909 0.36774,-0.77997 0.54647,-0.132976 0.842,-0.443055 0.6936,-0.897759 0.40343,-0.106997 0.41414,-0.494796 0.73417,-0.641249 -0.23377,-0.245614 0.0444,-0.530339 -0.16751,-0.922618 0.33237,-0.17237 -0.35442,-0.786097 -0.0366,-0.918691 -0.30181,-0.03908 -1.012,-0.124262 -0.60592,-0.478975 -0.73469,-0.04042 -0.0324,-0.3936 -0.11255,-0.476363 -0.49357,-0.31746 0.10361,-0.702198 0.29053,-0.99721 -0.57814,-0.05365 -0.11987,-0.370254 -0.26043,-0.424013 -0.28739,-0.079 -0.59668,-0.171735 -0.81792,-0.399144 0.32021,-0.298238 -0.48951,-0.21547 -0.19499,-0.337643 -0.25444,-0.425541 -0.42508,-0.713827 -0.98282,-0.502533 -0.10933,-0.384123 -0.30426,0.584883 -0.47113,0.05366 -0.55043,0.02327 0.0884,-0.973538 -0.63732,-0.705377 -0.46011,-0.437119 -0.41054,0.635142 -0.79699,0.357267 -0.12062,0.295332 0.0187,0.710064 -0.37035,0.887286 -0.0876,0.417479 -0.52268,0.277029 -0.71847,0.608534 -0.11198,-0.07113 -0.50649,0.577884 -0.23687,0.967112 -0.16205,0.35143 -0.56285,0.404657 -0.70799,0.803528 -0.29626,-0.161386 -0.7819,0.0204 -0.75904,0.346799 -0.26298,0.780542 -0.63077,0.645321 -0.73809,0.590215 -0.4487,0.124562 -0.71,-0.447019 -0.98936,-0.400455 -0.23109,-0.106295 -0.54276,-0.08737 -0.513,-0.650416 0.16675,-0.549536 -0.50466,-0.409406 -0.83232,-0.575819 0.11151,-0.507354 -0.38179,0.165004 -0.7237,-0.175359 0.26329,2.32783 0.94638,2.070282 0.81089,2.822807 -0.84676,-1.313741 -1.60508,-4.30836 -2.90216,-4.431173 -0.32808,1.444389 -0.85972,6.329404 -0.70668,6.487115 1.25383,-1.102478 0.88974,0.502394 -0.0307,0.943575 -0.61672,2.850086 -0.10976,6.77457 -2.32885,8.887214 -1.26608,1.229259 2.03761,0.309722 1.59502,1.68494 -0.6404,1.857232 0.59738,-0.157159 1.20163,1.077675 1.03256,0.708965 2.27367,0.32813 2.80711,1.353177 0.38744,0.781265 1.04384,0.428117 1.71437,0.222474 z"
       id="Aquitaine" />
    <path
       style="fill:#000000;stroke-width:0.051617"
       d="m 55.030888,13.638294 c -0.22882,0.209689 -0.47442,0.560991 -0.79961,0.553571 -0.18452,-0.230206 -0.56724,-0.149673 -0.72369,-0.29707 0.0107,0.374627 -0.39432,0.65791 0.009,0.971039 0.0287,0.461034 -0.10168,0.61039 -0.42793,0.929161 0.35059,0.412922 -0.14544,0.492996 -0.30754,0.734168 0.25898,0.340758 -0.33151,0.413781 0.0366,0.810072 0.28891,0.384548 -0.0884,0.748842 0.30885,0.853258 -0.22986,0.251591 0.20925,0.588252 -0.35335,0.734168 -0.5732,0.05825 0.0468,0.692648 -0.3939,0.853258 0.17171,0.220398 0.8403,0.644515 0.54309,0.957952 0.0489,0.256272 -0.0747,0.717487 0.3154,0.417468 0.0176,0.309622 0.35892,0.294531 0.49337,0.488137 0.33354,0.369543 0.86173,0.321742 1.1765,0.701451 0.1872,0.06348 0.45611,0.385091 0.46458,0.481593 -0.29076,0.0068 -0.29307,0.749253 0,0.442334 0.45819,-0.244051 0.39961,0.755891 0.79175,0.467197 0.26709,0.337104 0.30297,0.41703 0.62947,0.718464 -0.13872,0.152823 -0.22039,0.351267 -0.36381,0.619005 -0.044,0.261153 -0.19824,0.237799 0.21332,0.384751 0.33951,0.196566 0.54517,0.504813 0.513,0.888592 0.30942,-0.474577 0.44161,0.504444 0.59545,-0.154423 0.46606,-0.307279 -0.0144,0.561357 0.28921,0.09553 0.30005,-0.04448 0.40842,-0.533948 0.81138,-0.493372 0.35265,0.149404 0.1021,0.692633 0.58891,0.675278 0.43687,-0.357827 1.18375,-0.244039 1.30214,0.352034 0.33799,-0.08908 0.71116,-0.780771 0.90167,-0.115163 0.53114,0.201157 0.92866,0.951683 1.37019,0.397838 -0.0698,-0.347244 -0.008,-0.815397 0.23556,-1.160798 0.27449,-0.15599 0.55943,-0.701539 0.57451,-0.916074 -0.0267,-0.493008 0.59564,-1.098546 0.61246,-1.478805 -0.0842,-0.100107 -0.802,-0.102692 -0.42924,-0.493372 -0.18695,-0.26994 0.16501,-0.673913 -0.0537,-0.946174 0.42231,0.08698 -0.54632,-0.133018 0.0314,-0.212006 0.53322,0.203066 1.05403,-0.640013 0.94618,-0.925235 -0.4565,-0.28329 0.51637,-0.97912 -0.16489,-1.141167 -0.19913,-0.114244 -0.40995,-0.437407 -0.56274,-0.03795 -0.11369,0.335453 -0.43359,0.106843 -0.43578,0.01047 -0.31716,-0.346393 0.57109,-0.357139 -0.0367,-0.413542 -0.49629,-0.140708 -0.72078,-0.500751 -0.34287,-0.696217 0.42075,-0.03963 0.25536,-0.812181 0.60068,-0.974965 0.17408,0.199022 0.16075,0.583356 0.57582,0.649104 0.44861,0.142466 0.72723,0.499495 1.29821,0.187141 0.29786,0.234269 0.71675,0.338916 0.71585,-0.166202 0.56572,-1.002681 -0.43514,-0.424286 -0.44234,-1.179119 -0.73775,-0.08041 -2.93858,0.370905 -2.33961,0.304154 -0.44232,-1.835611 -1.69764,0.522365 -1.97902,-1.037013 -0.62507,-0.943385 -0.93838,-1.75818 -2.26794,-1.955165 -1.07481,0.434362 -1.72659,0.355721 -2.66111,-0.378797 -0.88654,0.09208 -1.4786,0.805777 -1.85906,-0.50456 z"
       id="Lorraine" />
    <path
       style="fill:#808080;stroke-width:0.051617"
       d="m 35.857448,37.877623 c 0.43813,0.365327 1.10266,-0.07163 1.6136,0.342873 0.3218,-0.08346 1.0281,-0.334052 1.04171,0.205463 0.40661,-0.02048 -0.19141,0.445727 0.38867,0.528705 0.3113,-0.126061 0.2365,0.246633 0.59676,0.249958 0.16329,0.529652 0.52185,0.884311 0.37821,1.46441 0.18803,0.352283 0.50709,0.899446 0.0262,1.062648 -0.005,0.539806 -0.54768,0.430146 -0.65957,0.81269 -0.51789,0.03497 0.12095,0.675693 0.32978,0.808756 0.24861,0.270933 0.20215,0.695911 -0.0615,0.787831 -0.2705,0.425995 0.37059,0.624628 0.1662,1.067879 -0.32297,0.322235 -0.48192,0.856682 -0.10993,0.827085 -0.25574,-0.02758 -0.91229,-0.594685 -0.6792,0.07329 -0.0488,0.50148 -0.64247,0.644418 -0.85326,1.122841 -0.042,0.376789 -0.26206,1.17103 -0.0851,0.849332 0.007,0.31985 -0.79337,0.274123 -0.36119,0.759034 0.31171,0.419352 -0.705,0.0742 -0.86111,0.438404 -0.21141,-0.498822 -0.75677,0.537509 -0.98675,0.113862 -0.28401,-0.343666 -0.69594,-0.861922 -1.13723,-0.764273 -0.34147,-0.01695 -0.6378,0.437207 -0.71585,-0.208078 0.0153,-0.311876 0.0418,-0.605236 -0.41747,-0.543099 -0.61704,0.104762 0.13799,-0.556086 -0.51693,-0.471124 0.21257,-0.225221 0.37414,-0.412931 -0.004,-0.532631 -0.0615,-0.395795 0.79247,-0.635824 0.31277,-0.948794 -0.31668,0.08942 0.28212,-0.411542 -0.26958,-0.357272 -0.14203,-0.299126 -0.96699,-0.137719 -0.37559,-0.611151 -0.26626,-0.317367 -0.73574,-0.0386 -0.71061,-0.591521 -0.27901,-0.232586 -0.73873,0.05295 -0.94749,-0.16489 -0.14051,0.591815 -0.6861,0.02164 -0.44887,-0.376903 -0.14778,-0.32958 -0.97716,-0.01862 -0.58498,-0.46589 0.34506,-0.07038 0.2027,-0.678717 0.51954,-0.399144 0.22667,-0.129538 0.44677,-0.754553 0.29838,-1.071807 0.78197,0.415548 0.81656,-0.967529 0.23556,-0.799605 -0.31188,-0.126312 -0.13601,-0.591487 -0.13348,-0.728931 0.25715,-0.338672 -0.50462,-0.722033 0.11124,-0.84148 -0.0144,-0.501782 0.7279,-0.144158 0.83493,-0.467198 0.0322,-0.380584 0.95381,-0.244313 0.62686,-0.39522 0.15946,-0.494003 0.42539,0.01483 0.74463,-0.163585 0.27404,-0.156765 0.52487,-0.2834 0.68968,0.184523 0.37266,0.01253 0.59142,-0.888435 0.81792,-0.35596 0.31801,-0.398685 0.84515,-0.162074 0.5274,0.0079 0.43112,0.11398 0.44457,-0.06558 0.65957,-0.448876 z"
       id="Limousin" />
    <path
       style="fill:#000000;stroke-width:0.051617"
       d="m 44.315428,22.991414 c 0.19511,0.441584 0.56015,-0.0019 0.82708,0.469815 0.0478,0.298032 0.59419,0.451781 0.32717,0.808763 -0.25819,0.37212 0.49917,0.655051 0.24211,0.469815 0.14641,0.602679 0.63899,-0.368852 0.48682,0.286601 0.46446,0.01028 0.28371,0.706765 0.6622,0.887283 -0.40888,0.502772 0.40922,-0.09037 0.19499,0.397838 -0.18155,0.539445 0.61433,0.129326 0.85064,0.264353 0.54024,0.03773 0.41098,-0.293841 0.78652,-0.103385 -0.12368,-0.614998 0.40646,0.661424 0.53525,-0.06543 0.39188,-0.162736 0.99034,0.047 1.37673,-0.194994 -0.28871,-0.563604 0.66903,-0.343973 0.96842,-0.200227 0.35276,-0.01263 0.0653,0.441108 0.56011,0.433172 -0.48397,0.605431 0.33439,0.794515 0.30492,0.395221 0.23497,0.321365 0.53399,0.665919 0.003,0.874197 0.0968,0.20407 0.33545,0.274988 0.1963,0.619004 0.35816,0.109998 0.39025,-0.08387 0.60461,0.259118 0.28298,0.411267 0.59726,-0.322972 0.57975,0.120399 0.42903,0.09494 0.33249,0.907716 0.77735,0.328478 0.17331,0.121891 0.47866,0.173512 0.60853,-0.164894 0.50483,0.358101 0.16526,1.021844 -0.27743,1.028621 -0.14525,0.290115 0,0.282311 0.21724,0.392603 -0.12415,0.40989 0.34434,0.636996 0.30492,0.509076 -0.0963,0.326597 -0.012,0.475598 0.0772,0.611152 -0.16786,0.198112 -0.17253,0.620061 -0.25389,0.798294 -0.13543,0.357913 -0.25457,0.815861 -0.69621,0.855875 -0.34812,0.147881 -0.29744,0.586383 -0.21986,0.556188 -0.30866,0.300515 -0.0981,0.665968 0.12302,0.616387 0.0826,0.514807 0.54627,0.120055 0.70538,0.552262 0.38152,0.229568 -1.06311,0.05273 -0.4214,0.509076 0.22644,0.194371 -0.11523,0.455433 0.24865,0.664808 -0.0545,0.253297 0.29981,0.500915 -0.0327,0.707995 -0.14316,0.09272 -0.46443,0.750484 0.10208,0.85064 -0.18717,0.374203 -1.06253,0.460392 -1.1163,-0.140029 -0.37583,-0.08946 -0.787,0.379708 -1.16473,-0.05496 -0.52421,-0.08373 -0.42274,0.775191 -0.69621,1.152945 -0.10675,0.483322 -0.2548,1.081347 -0.49599,1.457867 -0.22519,-0.122345 -0.0556,-0.607596 -0.32848,-0.642561 0.3826,-0.26398 -0.49043,-0.580461 -0.44495,-0.06674 -0.34944,-0.235504 -1.287,-0.490224 -0.68836,-0.154424 -0.69165,-0.468425 -0.36881,0.82919 -0.80222,0.785207 -0.23199,0.118425 -0.37711,0.342139 -0.40046,-0.02225 -0.32719,-0.05031 -0.5117,0.20175 -0.84279,-0.07067 -0.28805,0.156777 -0.56135,0.303029 -0.71061,-0.05365 -0.45455,0.147457 -0.32369,-0.620643 -0.1361,-0.634709 0.34823,-0.20712 0.39809,-0.318771 0.26566,-0.803528 0.30104,-0.363187 -0.0942,-1.00595 -0.50777,-0.697525 -0.12484,-0.418503 -0.50279,-0.253675 -0.78651,-0.493372 0.14769,-0.618762 -0.51116,-1.023678 -0.61246,-1.574339 -0.28869,-0.132267 -0.39229,0.743733 -0.40046,0.51431 -0.25216,-0.07333 -0.55362,0.594459 -0.54179,-0.05235 -0.23185,-0.466892 -0.61251,0.353846 -0.88467,-0.183215 -0.37545,0.400089 -0.6049,0.119489 -0.94748,-0.140028 -0.74391,-0.262925 0.13651,-0.858844 -0.23164,-1.302134 0.20774,-0.438071 0.18038,-0.993777 -0.15311,-1.294283 0.13576,-0.503564 -0.2168,-1.016341 -0.27613,-1.499745 -0.44744,-0.286606 -0.64585,-0.588832 -0.26697,-1.067881 0.29842,-0.475802 -0.75639,-1.00025 -0.0497,-1.116301 0.69597,0.173057 -0.091,-0.467336 0.20415,-0.705378 -0.17624,-0.21221 -0.37263,-0.512066 -0.51169,-0.577127 -0.0212,-0.457592 1.17163,-0.13071 0.85718,-0.776046 0.18027,-0.237954 -0.23019,-0.522832 0.20416,-0.705377 0.56822,-0.309932 0.4494,-0.945828 -0.0157,-1.193514 0.0117,-0.45835 -0.33957,-0.561857 -0.60984,-0.765576 0.39908,-0.220097 0.71044,-0.603995 0.44103,-1.005065 0.10535,-0.465127 0.46529,-0.333691 0.80483,-0.450185 0.34959,0.0854 0.64901,-0.05225 1.01423,-0.03926 -0.0777,-0.126592 0.0365,-0.107682 0.0628,-0.166202 z"
       id="Bourgogne" />
    <path
       style="fill:#000000;stroke-width:0.051617"
       d="m 20.425518,38.933726 c 0.22954,-0.192682 0.7016,-0.490265 1.09798,-0.43579 -0.28492,0.63914 0.38095,0.206491 0.64649,0.168819 0.0183,0.249497 0.38771,0.360256 0.55357,0.125633 0.59577,0.08827 0.26302,-0.307652 0.68705,-0.281366 0.13606,-0.523264 -0.58166,0.115891 -0.42662,-0.507767 0.33291,-0.233902 -0.28498,-0.727182 0.17798,-0.838862 -0.11228,-0.31177 -0.11565,-0.647653 -0.24865,-0.803528 0.084,-0.448609 -0.49126,-0.657802 -0.3468,-1.190897 0.0221,-0.164126 -0.82885,-0.482206 -0.5431,-0.867653 -0.29606,-0.186635 -0.60954,-0.48537 -0.1505,-0.557497 0.49482,-0.321459 1.32719,0.235586 1.54816,-0.40569 0.0162,-0.49895 0.59477,-0.291499 0.81924,-0.244722 0.24059,-0.36424 0.96461,-0.202616 1.33616,-0.253884 0.161,0.07589 -0.19625,0.447538 0.23032,0.266971 -0.004,-0.450153 0.5265,0.0085 0.3769,-0.439717 0.21513,-0.548 0.62162,-0.159561 0.56535,-0.790441 -0.0853,-0.572881 0.61537,-0.919441 0.45411,-1.321764 0.16548,-0.330746 0.39264,-0.810936 0.22117,-1.077042 0.16473,-0.382051 0.19338,-0.756785 0.71192,-0.40569 0.66432,0.527003 -0.0788,-0.338808 0.36512,-0.361195 0.21318,0.309021 0.50026,-0.160669 0.81792,-0.181906 0.37836,-0.04439 0.005,-0.418765 0.36774,-0.650413 0.40365,-0.105585 0.51764,-0.400235 0.76689,-0.717155 -0.26506,-0.247766 0.032,-0.58997 0.20023,-0.459346 0.23799,-0.323126 0.0162,-0.466659 0.15704,-0.848023 -0.54828,-0.211552 -0.32654,-0.822663 -0.0864,-0.641253 0.29547,-0.299167 0.66492,-0.327735 0.0327,-0.506458 -0.31243,-0.06029 -0.6938,-0.137496 -0.77605,-0.619005 -0.25635,-0.04622 -0.16046,0.248335 -0.54833,0.07983 -0.4288,-0.08704 -0.3319,-0.53947 -0.79568,-0.518236 -0.51582,-0.198386 0.0132,-1.31242 -0.81661,-1.292974 -0.504,0.120197 -0.70239,0.358749 -1.08359,0.646487 -0.0926,0.266001 -0.5013,-0.06119 -0.66088,0.09815 0.14698,-0.646982 -0.14057,-0.393162 -0.50777,-0.61377 -0.0838,-0.379814 -0.0121,-0.756312 -0.44756,-0.736786 0.12519,0.469745 -0.61953,0.672907 -0.48683,0.441025 -0.21051,0.233998 -0.66506,-0.281273 -0.96319,0.03795 -0.2514,0.188056 -0.80621,0.573482 -0.85195,0.143955 -0.43888,0.144607 -0.56937,0.360884 -0.44364,0.328478 -0.2397,-0.223571 -0.31478,-0.174745 -0.54703,-0.486828 -0.40164,0.002 -0.45308,-0.148284 -0.81269,0.04711 -0.45984,-0.410863 -0.13604,0.355125 -0.29445,0.554879 0.44425,0.552908 -0.29609,1.077642 0.0105,1.630613 -0.0474,0.592184 0.49388,1.181128 0.19892,1.655477 -0.47541,0.0082 -0.69081,0.253139 -0.75642,0.731551 -0.14361,0.260759 -0.23891,0.63538 -0.41485,0.91084 -0.49845,0.03968 -0.77221,-0.529994 -1.13069,-0.404382 0.0146,0.479961 -0.95454,0.254133 -0.93963,0.836245 -0.49799,0.347629 -1.18929,-0.09624 -1.7039,0.380826 -0.16099,-0.09015 -0.71648,0.123666 -0.6177,0.516927 -0.0341,0.692409 -0.30302,0.394983 -0.3468,0.778664 -0.2184,0.07812 -0.91483,0.112685 -0.62555,0.01047 -0.1859,-0.210153 -0.32555,0.582424 -0.77735,0.324552 -0.38898,0.0552 0.35698,0.607834 -0.6952,0.5727 0.79398,0.784976 -0.45483,0.641675 1.07995,0.966305 0.53337,-0.901501 3.58507,0.06016 2.74953,0.283983 -0.64933,-0.908616 -2.05738,-0.509914 -2.14099,0.541793 1.90463,0.31208 0.15737,1.704661 0.83624,2.765235 1.34166,0.892016 1.00132,2.232473 2.06248,2.584639 0.73738,0.361902 1.66547,0.846245 2.34596,1.34341 0.16197,-0.0679 0.11721,-0.617761 0.56977,-0.31348 z"
       id="Pays-de-la-loire" />
    <path
       style="fill:#000000;stroke-width:0.051617"
       d="m 48.880098,10.981679 c -0.18895,0.368974 0.33821,0.638293 -0.0602,1.012916 -0.16739,0.400387 0.26668,0.486018 -0.0432,0.829702 -0.45049,0.1907 -0.40228,0.858079 -0.93439,0.739403 0.0209,0.143289 0.0159,0.71853 0.13741,0.587596 0.13096,0.291377 -0.31687,0.478103 -0.0471,0.820541 -0.10166,0.107317 -0.0305,1.0011 -0.43187,0.509075 -0.22892,-0.256389 -0.68291,-0.139348 -0.65826,0.246032 -0.38484,-0.173111 -0.80339,0.09965 -1.10583,0.312774 0.29155,0.227758 -0.0862,0.74078 0.30623,0.727625 0.19694,0.131949 0.40809,0.547103 -0.0811,0.461963 -0.57357,-0.123229 -0.29693,0.303308 -0.28268,0.587596 -0.70254,0.22067 0.58841,0.08912 0.13349,0.532632 -0.34409,0.202157 -0.28794,0.641131 -0.72239,0.744637 -0.27551,0.256311 -0.0837,0.795807 -0.41486,0.766885 -0.14724,0.320367 -0.22002,0.311399 0.14134,0.486829 0.0733,0.396276 -0.3499,0.85638 0.29838,0.662191 0.4225,0.35833 -0.4233,0.442861 -0.26697,0.887283 -0.66634,0.225168 -0.0147,0.230436 -0.41485,0.492063 0.004,0.322244 0.1378,0.444658 0.14658,0.796985 0.54533,-0.295797 0.77848,0.58418 1.06526,0.823158 -0.0535,0.456283 -0.27579,0.413271 0.12825,0.666117 0.10744,0.497463 0.62863,-0.424327 0.48944,0.293144 0.52441,0.05384 0.34333,0.964488 0.86242,1.080967 0.0327,0.409195 -0.11058,0.509328 0.37821,0.444951 0.25287,-0.02452 0.93444,0.116488 0.71977,-0.0052 0.23284,-0.394219 0.46615,0.09101 0.41354,-0.30623 0.24088,0.0034 0.43512,0.673057 0.58106,0.08506 0.33649,-0.06128 1.23927,0.07917 1.21707,-0.176672 -0.0165,-0.505147 0.80766,-0.355901 1.13462,-0.163584 0.53055,-0.102128 0.0234,0.475156 0.59284,0.401763 -0.18183,0.670141 0.0954,-0.04363 0.32585,0.439716 0.20612,0.288094 0.67137,0.770576 0.0353,0.957952 0.26369,0.01686 0.21333,0.429183 0.24995,0.622931 0.45229,-0.413018 0.33004,0.319166 0.81662,0.285291 0.0801,-0.587462 0.85967,0.494631 0.62686,0.43579 0.0818,0.168982 0.49064,-0.256134 0.60461,-0.06674 0.0787,-0.457871 0.41151,-0.714474 0.86634,-0.547028 0.26867,-0.619411 0.39025,0.286121 0.76558,-0.08245 0.1146,-0.06634 0.0281,-0.409453 0.14919,-0.566658 -0.37327,-0.0798 -0.0344,-0.579901 0.21724,-0.503841 -0.004,-0.463589 0.55997,0.02648 0.53132,-0.575818 0.49906,0.0253 -0.0453,-0.567754 -0.28922,-0.324552 0.0972,-0.47036 -0.31541,-0.867799 -0.6491,-0.948791 -0.41788,-0.162499 0.19086,-0.464828 0.0615,-0.853258 0.67888,-0.175971 -0.40254,-0.318814 -0.16227,-0.637326 -0.42209,0.09583 -1.28918,-0.612716 -0.90298,-0.61377 -0.45915,0.407904 -0.26515,-0.353734 -0.4057,-0.397838 0.49444,-0.160577 -0.075,-0.536357 -0.30492,-0.645178 -0.2384,-0.268528 -0.76472,-0.296786 -1.01422,-0.558806 -0.28625,-0.235677 -0.45236,-0.526793 -0.75118,-0.387368 -0.29206,-0.483687 0.22926,-0.870772 -0.34288,-1.241935 -0.0783,-0.222345 -0.53294,-0.189153 -0.23033,-0.492063 0.31798,-0.114746 -0.22818,-0.717317 0.32586,-0.779972 0.60874,-0.04148 0.65761,-0.622196 0.33634,-0.519545 -0.39305,-0.180554 -0.21211,-0.169311 -0.18715,-0.789133 -0.1994,-0.307363 -0.36396,-0.731109 -0.0955,-0.86111 -0.32019,-0.431847 0.75209,-0.376014 0.26043,-0.892518 0.17999,-0.364735 0.44595,-1.001816 0.44103,-0.662191 0.0246,-0.344438 -0.4434,-0.602946 -0.0929,-0.867653 0.0266,-0.29828 0.20845,-0.67421 0.47375,-0.294452 0.38406,-0.100513 0.61967,0.456272 0.84147,-0.191067 0.63417,-0.09905 0.23486,-0.665223 -0.0432,-0.41491 -0.71093,-0.674043 -2.15301,-0.79733 -2.52051,-1.578206 -0.10366,-0.758842 -0.18619,-1.425698 0.19106,-2.1828752 -1.11015,-0.498376 -0.95931,1.9341442 -2.42629,1.5337702 -0.33346,-0.04619 -0.63496,-0.271363 -0.98412,-0.146571 z"
       id="Champagne-ardenne" />
    <path
       style="fill:#000000;stroke-width:0.051617"
       d="m 35.473998,16.581511 c -0.0268,0.171646 0.0943,0.579637 0.45673,0.397837 0.4291,0.255839 1.02515,0.07622 1.50891,-0.175362 0.13962,0.140622 0.4012,0.272054 0.5431,0.255192 0.16194,-0.0492 0.3317,0.379641 0.58629,0.0026 0.15257,-0.175816 0.91561,0.132988 0.69621,0.243414 0.49505,0.211922 1.21677,0.8334 0.7538,0.361195 0.1628,0.155156 0.54853,-0.2277 0.68313,0.226401 0.31498,-0.0073 1.1249,-0.03831 0.7394,-0.151807 0.24959,0.199134 0.62649,-0.102034 0.83494,0.05496 0.36663,-0.182702 0.85951,-0.19013 0.62162,-0.229019 0.42547,0.01957 0.2536,0.50278 0.29446,0.721081 0.36685,0.134897 0.45354,0.61844 0.72108,0.634709 0.30692,0.117759 0.85615,0.704668 0.56404,0.503841 0.14989,0.136316 0.63181,0.183368 0.13218,0.315392 -0.32947,0.04821 0.15173,0.208113 -0.23426,0.465889 0.36419,0.06615 0.47469,0.417258 0.23556,0.734168 0.0997,0.387737 0.76675,0.01847 0.34811,0.498606 -0.29425,0.572277 -0.64514,0.199691 -0.44757,0.659574 -0.19824,0.165849 -0.22604,0.922875 -0.17144,0.634709 0.32104,0.247548 -0.13275,0.174745 -0.30622,0.370355 -0.48138,0.0182 -0.9493,-0.0065 -1.40553,0.117781 -0.38744,0.116362 -0.20022,0.696315 -0.19499,0.855876 -0.24695,0.456768 -0.73271,0.711541 -1.16472,0.842788 0.19718,-0.430824 -0.56774,-0.186292 -0.47374,0.0013 -0.37231,0.07853 -1.02723,-0.06388 -1.31784,0.04449 0.248,-0.175647 0.47146,-0.517878 0.1806,-0.834936 -0.33064,-0.05654 -0.4161,-0.236096 -0.48945,-0.605918 -0.32143,0.06864 -0.58618,-0.226488 -0.81269,0.06674 -0.22922,-0.570493 -0.5286,0.268517 -0.8598,0.04842 -0.32415,0.200319 -0.77308,0.1785 -0.60853,-0.252574 0.22542,-0.31039 -0.15395,-0.529471 -0.17013,-0.622931 0.0752,-0.563719 -0.45459,0.08811 -0.60723,-0.384751 -0.42718,-0.07668 -0.0162,-0.930244 -0.63732,-0.870271 0.20837,-0.376906 -0.37175,-0.173925 -0.36774,-0.537866 -0.29082,-0.128306 -0.26235,-0.430586 -0.0524,-0.700143 -0.50952,-0.18769 0.0844,-0.811662 -0.40307,-0.952717 0.16569,-0.361487 -0.44876,-0.525124 -0.20677,-0.851949 -0.34825,0.09256 -0.10025,-0.305709 -0.31932,-0.528706 0.25338,-0.03532 0.82344,-0.0691 0.9344,-0.379517 0.31963,-0.263664 0.0973,-0.732455 0.41615,-0.97889 z"
       id="Ile-de-france" />
    <path
       style="fill:#000000;stroke-width:0.051617"
       d="m 42.111618,35.206611 c 0.4066,0.0292 0.53139,0.565764 0.94356,0.714538 0.2655,0.698131 0.72702,-0.45543 0.91868,0.167511 0.35769,0.05923 0.70229,-0.444562 0.64387,0.18845 0.26737,0.23022 0.50251,-0.163732 0.68445,-0.260427 0.0138,-0.210095 0.25796,-0.770777 0.36119,-0.0759 0.34897,0.359786 0.50533,0.815695 0.55095,1.28643 0.31714,0.178438 0.60062,0.0051 0.65042,0.380825 0.38792,-0.06865 0.82234,0.106305 0.62424,0.579744 -0.008,0.460383 0.072,0.761759 -0.44495,0.86111 -0.12393,0.387405 -0.97549,0.186492 -0.60854,0.757724 0.0644,0.464063 0.14623,0.852908 0.14788,1.38589 0.1733,0.490585 -0.88685,0.05691 -0.62424,0.696217 0.51847,0.223156 -0.0501,0.498626 0.0798,0.923924 -0.23731,0.309212 0.46732,0.473602 0.34549,0.901677 0.20177,0.65246 1.04116,0.682739 1.00507,1.446093 0.27727,0.420431 -0.63145,0.537653 -0.3769,1.095365 0.0868,0.545891 0.45804,-0.575179 0.61246,0.158351 0.11794,-0.0955 0.63141,-0.351223 0.4829,-0.145266 0.34154,-0.0062 0.32608,-0.36836 0.76165,-0.197611 0.11225,0.364024 0.86905,-0.0731 0.45542,0.497299 0.18197,0.358119 0.95541,0.503297 0.61246,0.459345 0.48099,0.204873 -0.15584,0.856172 -0.0236,0.955339 -0.52638,-0.402334 -0.79599,0.290573 -0.45412,0.240793 -0.068,0.405891 0.25829,0.451324 -0.32455,0.6033 0.31983,0.611595 -0.45498,0.122116 -0.43972,0.649105 -0.15388,0.494269 -0.59666,0.393673 -0.98673,0.515618 0.003,0.527464 -0.59095,0.06006 -0.61116,0.744637 -0.31528,0.267325 -0.75247,-0.221767 -0.53394,-0.133486 -0.19589,-0.273199 -0.4697,-0.505878 -0.67658,-0.400451 0.0263,-0.561273 -0.65834,-0.294759 -0.60331,0.01439 -0.38442,0.258158 -0.58305,0.130901 -0.64256,-0.345488 -0.10375,-0.426408 -0.2979,-1.001928 -0.69621,-0.495988 -0.26675,0.03027 -0.49264,0.05749 -0.4816,0.476358 -0.25644,0.358522 -0.44525,-0.563173 -0.65041,0.04057 0.0203,0.389755 -0.37178,0.468652 -0.32455,0.902988 -0.0784,0.216234 -0.21319,0.805546 -0.3612,0.772119 -0.38445,-0.282005 0.12255,-1.060544 -0.38213,-0.998516 -0.0187,-0.535785 -0.33016,-0.777931 -0.62686,-0.626858 0.16694,-0.497888 -0.35478,-0.664012 -0.5431,-0.276136 -0.38259,0.354552 -0.4956,0.798965 -0.68967,1.285125 -0.16646,0.349597 -0.38501,0.913301 -0.89383,0.676586 -0.18119,-0.08092 -0.49137,-0.20605 -0.81531,-0.03272 -0.28064,0.610985 -0.66741,-0.469509 -0.38213,-0.348111 -0.16266,-0.148094 0.41138,-0.751187 -0.0353,-0.960567 -0.37629,-0.400119 -0.06,-0.697826 -0.37036,-1.107144 0.46755,5e-6 0.42976,-0.345091 0.17929,-0.646482 0.51829,-0.200641 0.63995,-0.688535 0.53132,-0.594143 0.4133,-0.255427 -0.35598,-0.609515 0.20546,-0.85195 0.15288,-0.440572 0.94546,-0.64656 0.60985,-1.244548 0.2582,0.158949 1.00938,0.553835 0.83756,0.01308 -0.23428,-0.424307 0.31086,-1.103515 -0.24866,-1.457861 0.12359,-0.322647 0.38428,-0.331649 0.32325,-0.738092 -0.0422,-0.441925 -1.06715,-0.867961 -0.45935,-1.117617 0.0443,-0.254803 0.5054,-0.191618 0.60199,-0.594138 -0.0527,-0.269751 0.4604,-0.338236 0.24211,-0.739403 0.0117,-0.324253 -0.45501,-0.620388 -0.17536,-0.98936 -0.23676,-0.379371 -0.24891,-1.018006 -0.73287,-1.185662 -0.0786,-0.327063 -0.84828,-0.585492 -0.63209,-0.370356 0.43219,-0.282554 -0.31968,-0.242826 -0.15442,-0.615078 0.14698,-0.465728 0.52306,-0.738302 1.08097,-0.757725 0.34484,0.27504 0.92578,-0.364603 0.54179,-0.659574 -0.009,-0.655624 0.19491,-0.736785 0.19761,-0.527397 0.37018,-0.07007 0.41275,-0.643073 0.74071,-0.259118 0.50117,-0.01594 0.56886,-0.470282 1.03386,-0.637326 z"
       id="Auvergne" />
    <path
       style="fill:#000000;stroke-width:0.051617"
       d="m 64.154988,29.85412 c 0.0847,-0.299815 -0.1772,-0.667655 -0.42794,-0.744638 -0.4612,0.183108 -0.0832,-0.554322 -0.0654,-0.698834 0.0854,-0.625793 -0.90369,-0.540958 -1.07442,-0.944865 -0.33907,-0.348994 -0.92694,-0.55464 -1.21445,-0.99067 -0.36589,0.541588 -0.76343,0.395565 -1.0548,-0.02748 -0.32389,-0.377175 -0.96804,0.406075 -1.15949,-0.05758 -0.37129,-0.06682 0.0106,-0.685565 -0.57843,-0.456729 -0.15126,0.172786 -0.74268,0.894778 -0.72239,0.401764 0.0378,-0.315853 -0.19374,0.346099 -0.29184,0.472433 -0.31841,-0.09295 -0.1921,0.666714 -0.61769,0.319317 0.0777,0.439544 -0.54831,0.13246 -0.39784,0.596757 0.32822,0.128677 -0.0658,0.458361 0.0288,0.71323 -0.22417,0.07354 -0.69926,-0.517427 -0.65695,-0.136103 -0.24669,0.444638 -0.85639,0.01388 -0.94356,0.520854 -0.22198,0.419494 0.55385,-0.3565 0.53656,0.400455 0.23136,0.378627 -0.37,0.763679 -0.46851,0.743329 -0.22429,0.251358 0.3316,0.05256 0.17275,0.456729 -0.0416,0.378997 0.4656,0.07567 0.31407,0.51431 -0.26923,0.33705 0.35636,0.305066 -0.003,0.578436 -0.0807,0.598214 -0.25478,1.078874 -0.62947,1.580882 -0.3864,-0.03018 -0.5849,0.341892 -0.30492,0.509076 -0.34434,0.09971 -0.41981,0.598185 -0.0301,0.543101 0.006,0.504611 0.53801,0.163836 0.66612,0.569275 0.50485,0.288341 -0.38774,0.279395 -0.53918,0.393912 0.26412,0.183421 0.69611,0.92659 0.31278,0.6334 0.11631,0.36911 0.32107,0.680049 0.106,0.965804 -0.0453,0.215141 -0.51749,0.371277 -0.15835,0.632092 0.53308,0.309999 -0.10524,0.504353 -0.36643,0.55357 -0.11627,0.358225 0.4709,0.343822 0.33502,0.710612 0.17999,0.161473 0.55756,0.09437 0.48683,0.478976 0.0582,0.409032 0.68997,-0.125621 0.83493,-0.370356 0.16525,0.0065 0.57156,0.263767 0.53264,0.543101 0.6745,0.129137 1.04197,-0.23114 1.31129,-0.751181 0.99246,-0.940975 0.79391,-2.262754 2.26925,-2.888251 0.0209,-1.391228 1.18175,-1.947484 2.01143,-2.907882 0.92536,-0.888368 1.74849,-1.925594 0.65564,-2.028908 0.50893,-0.442294 0.27976,-0.988692 1.13071,-0.827935 z"
       id="Franche-comte" />
    <path
       style="fill:#000000;stroke-width:0.051617"
       d="m 66.912368,18.005352 c -0.2683,0.33547 -0.38259,1.241751 -0.91215,0.671351 -0.32661,-0.101453 -0.89139,0.356789 -1.00376,-0.09946 -0.48789,-0.0096 -1.02056,-0.372582 -0.99983,-0.743329 -0.25333,0.155605 -0.14905,0.939441 -0.53917,0.93963 -0.60855,0.498821 0.84009,0.42394 0.48683,0.779973 -0.32116,0.01789 0.0901,0.401868 0.068,0.315391 0.21876,-0.179167 0.36596,-0.614076 0.619,-0.229019 0.297,0.01205 0.38415,0.243665 0.53918,0.541793 -0.39509,0.408679 0.004,1.139027 -0.10731,0.906913 -0.072,0.555476 -0.7158,1.054774 -1.13331,0.923927 0.45705,0.06902 0.0692,0.193846 0.18059,0.608535 -0.11239,0.251979 -0.0515,0.55783 -0.0615,0.700142 0.22386,0.146506 0.64649,-0.01137 0.48159,0.409617 -0.22353,0.318968 -0.61369,0.924834 -0.58497,1.240626 -0.0334,0.440924 -0.4695,0.886043 -0.71061,1.166032 -0.24481,0.411269 -0.0427,0.826347 -0.25258,1.159488 -0.68986,0.245262 0.35743,0.471022 0.5732,0.634709 0.34585,0.295947 0.13484,0.753043 0.0222,1.056103 0.20434,1.03e-4 0.51246,0.141248 0.57189,0.450185 0.22923,0.536275 0.35771,0.455301 0.29184,0.778663 0.7513,0.598427 2.20825,-0.634899 1.73364,-0.673516 0.64704,-0.610567 -0.2767,-1.929028 0.3995,-2.984238 -0.24821,-1.453038 0.86867,-2.853611 1.09947,-4.370937 0.0254,-1.586442 1.96099,-2.2329 2.2141,-3.592367 -1.07685,-0.380386 -1.83121,-0.713982 -2.97593,-0.590213 z"
       id="Alsace" />
    <path
       style="fill:#000000;stroke-width:0.051617"
       d="m 67.861452,67.063064 c -0.177124,0.250451 -0.407677,0.836723 -0.813934,1.468195 0.179189,1.063734 -0.249248,2.612839 -0.411584,2.705605 -0.220952,0.289515 -0.226418,1.329417 -0.386637,1.445571 -0.887271,0.850535 -0.5827,-0.798381 -1.685214,-0.594432 -0.69765,-0.27165 -1.095614,-0.987728 -0.243198,-1.394553 0.125321,-0.532889 -1.712016,-0.178001 -0.914696,-1.006067 1.139514,-1.062681 -0.78792,-0.737845 -0.55827,-1.065928 0.2508,-0.328233 1.192164,-1.282338 -0.13107,-1.444807 -0.52771,-0.583851 -0.032,-1.744589 0.26698,-1.340293 -0.65175,-0.405777 -0.10315,-0.557676 0.12845,-1.294179 0.17175,-0.805907 0.60165,-0.643143 1.175607,-1.141892 0.923971,0.07313 1.454883,-1.539266 2.202633,-0.443922 0.482108,-0.6076 -0.240092,-2.869768 0.863341,-2.286201 0.104664,0.890507 0.0706,3.997218 -9.29e-4,2.59245 0.681474,1.06711 0.406066,2.564819 0.508505,3.800453 z"
       id="Corse" />
    <path
       style="fill:#808080;stroke-width:0.051617"
       d="m 35.932038,67.506082 c 0.43769,-0.03123 0.49245,-0.307509 0.89906,-0.328476 0.0382,-0.572061 0.85222,-0.158655 1.04695,-0.464579 -0.30657,-0.309052 -0.53113,-0.594581 -0.95403,-0.34811 -0.53101,-0.04592 -0.40213,-0.540885 -0.69753,-0.776047 0.10178,-0.380397 0.92088,-0.126802 0.62817,-0.722385 -0.61924,-0.155275 0.3258,-0.369852 -0.0393,-0.676586 0.13126,-0.247947 -0.31197,-0.323928 -0.0955,-0.571896 -0.0289,-0.452351 -0.66978,-0.695576 -0.52085,-0.409617 -0.34089,-0.02336 -0.91024,-0.266396 -0.74071,-0.639943 -0.22728,-0.384449 -0.0171,-0.803388 0.23687,-0.982819 0.46693,0.274551 0.0908,-0.484731 0.44364,-0.573197 0.26368,-0.250384 0.3173,0.248742 0.68052,0.0052 0.31637,0.118358 0.42378,-0.280533 0.6635,0.200228 0.311,-0.270649 0.56754,-0.624799 0.65302,-0.200228 0.30625,-0.615358 0.8705,0.328883 1.3571,-0.10469 0.75251,0.367519 1.29343,-0.429242 0.74464,-0.994598 -0.0727,-0.482635 0.33571,-1.041988 0.74988,-0.383442 0.41772,-0.182554 0.82437,-0.298243 1.06525,-0.632092 0.30147,-0.115834 0.68533,0.223362 0.48553,-0.319318 0.0297,-0.296117 -0.0701,-1.045049 0.55226,-0.575814 0.72809,0.277632 0.22013,-0.827463 0.89775,-0.579747 0.17358,-0.263015 0.23929,-0.651428 0.62293,-0.836248 0.0702,-0.426114 -0.59523,-0.148843 -0.6033,-0.523474 -0.57432,0.116324 0.0643,-0.816514 0.0105,-0.554878 0.49285,-0.415068 -0.20499,-0.468259 -0.5287,-0.294449 -0.0533,-0.218939 -0.62737,-0.81988 -0.41093,-0.611156 -0.40303,0.166522 0.16295,-0.543207 -0.1662,-0.719769 0.0816,-0.428524 0.13377,-0.789864 -0.28399,-1.139858 0.28298,-0.766926 -1.014,-1.044115 -0.73416,-1.851782 -0.18711,-0.162965 0.1935,-0.266989 -0.21986,-0.278747 -0.061,-0.629093 -0.92705,-0.706436 -0.6491,-0.619002 0.13687,-0.446317 -0.64061,0.03401 -0.39654,-0.248655 -0.28534,0.289985 -0.71667,1.280825 -0.53524,0.922623 -0.17923,0.357892 -0.32049,1.019989 -0.80091,1.104522 -0.41716,0.04369 -0.50497,-0.271221 -0.87551,-0.15835 -0.17561,0.171936 -0.47859,0.531175 -0.55487,-0.0013 -0.132,-0.270948 -0.23062,-0.397905 -0.11648,-0.850643 0.41245,-0.346413 -0.64797,-0.756081 -0.2408,-1.150322 -0.0816,-0.606934 -1.17911,-0.304432 -0.8598,-0.315395 -0.13671,-0.268156 -0.59936,0.45282 -0.80745,0.287909 -0.4056,-0.256831 -0.67799,-1.029703 -1.2969,-0.842787 -0.214,-0.04665 -0.88487,0.253656 -0.50253,0.646487 0.10888,0.206045 -0.91621,1.874065 -0.0497,0.60984 -0.34619,0.111617 -0.21673,0.528032 -0.66743,0.562734 0.26909,0.477582 -0.30006,0.850613 -0.7996,0.967112 0,0.415941 -0.23168,0.749454 -0.60068,0.879436 -1.22761,-2.728951 2.32967,9.67523 -0.0576,0.588899 -0.003,0.300473 0.4266,0.650312 0.0746,0.900371 -0.38062,-0.120634 -0.59851,0.333415 -0.72239,-0.150495 -0.0744,0.262328 -0.2398,0.560546 0.11254,0.628164 0.32813,0.26351 -0.21844,0.892665 -0.30885,0.91215 0.43877,0.117001 -0.13923,0.671791 -0.36773,0.303612 0.056,0.277803 -0.34564,0.265136 -0.32325,0.6033 -0.29352,0.147366 -0.464,0.462209 -0.65957,-0.02225 -0.23337,-0.153881 -0.49313,0.199608 -0.80222,0.07852 -0.3108,0.397446 -0.94624,0.608343 -1.32831,0.256501 -0.27996,0.399345 -0.94962,0.24977 -0.63601,0.277441 -0.32198,0.08963 0.19129,0.823514 -0.37821,0.626853 -0.2535,-0.362377 -0.18309,-0.746155 -0.60068,-0.218546 -0.25312,-0.08594 -0.56304,0.05463 -0.71454,0.23687 0.38352,0.11476 0.1406,0.406355 0.15966,0.706684 -0.29398,0.07469 0.30865,0.635922 -0.23033,0.744637 0.0468,0.26923 -0.0719,0.454261 -0.17275,0.651727 0.19266,0.301733 0.54533,0.164953 0.96319,0.290522 0.0151,0.297283 0.33414,0.38209 0.31932,0.714539 0.267,0.192754 -0.43173,0.467749 -0.0694,0.446261 0.44412,-0.373279 0.15869,0.539263 0.38606,0.735475 -0.23223,0.106001 -0.48429,0.251587 -0.22248,0.522158 -0.22846,0.394024 -0.23947,0.776041 -0.56927,0.833631 -0.16184,0.34714 -0.51958,0.479775 -0.34026,0.859805 -0.409,0.08646 -0.44716,0.473906 -0.42925,0.896443 -0.67068,0.381414 0.76756,1.174649 0.69042,1.148061 0.82888,1.164362 2.31872,0.22183 3.29189,0.652677 1.6964,0.680576 0.40964,-1.485771 1.77947,-1.127889 1.17322,0.591392 2.2869,0.713456 3.19482,1.379155 0.14853,0.628789 1.31079,-0.298898 1.97217,0.619002 z"
       id="Midi-pyrenees" />
    <path
       style="fill:#000000;stroke-width:0.051617"
       d="m 48.781948,60.770322 c -0.0814,-0.417339 0.51143,-0.539924 0.54834,-0.664811 0.21869,-0.02195 0.79474,-0.406732 0.63471,-0.442333 -0.39399,-0.321486 0.39312,-1.168098 0.81399,-0.67004 0.03,-0.370306 0.35168,-1.041229 0.20154,-1.378036 0.42732,-0.243534 0.84381,-0.720666 1.04171,-1.002454 -0.21656,-0.243276 -0.37365,-0.633098 -0.65434,-0.645171 -0.12038,-0.36004 0.1526,-0.921111 -0.24603,-1.012918 -0.0669,-0.50213 -0.60251,-0.655882 -0.97759,-0.867651 0.0331,0.238285 -0.57792,0.716264 -0.46719,0.05103 -0.33676,-0.38049 -0.47842,0.536048 -0.81138,0.475047 -0.37848,-0.3307 -0.58853,-0.575432 -1.04826,-0.39391 -0.0678,-0.441584 0.22064,-0.821377 -0.26828,-1.084892 -0.003,-0.693036 -0.58564,-0.880163 -0.59152,-1.504982 -0.0773,-0.335072 -0.15941,-0.7549 -0.3023,-0.855873 -0.35797,-0.05247 -0.36769,-0.706451 -0.87551,-0.47898 0.16706,-0.358774 -0.46485,-0.524259 -0.33371,0.02618 -0.35651,0.0029 -0.7258,0.373707 -0.84934,-0.218546 -0.12528,-0.487069 -0.19372,-1.069345 -0.68443,-0.619007 -0.43232,-0.09386 -0.21797,0.607609 -0.69622,0.535253 -0.35039,-0.593209 -0.25198,0.301226 -0.55095,0.370352 -0.12086,0.493996 -0.19793,0.858716 -0.39784,1.312606 0.25027,0.366238 0.68322,0.602055 0.45935,1.10976 0.68872,0.385931 0.0326,1.002811 0.42008,1.484037 -0.45279,0.428849 0.44773,1.081629 0.38083,0.658266 -0.20196,0.467702 0.94808,-0.317248 0.76296,0.416163 -0.36338,0.0778 -0.11503,0.590199 -0.50515,0.570585 0.49268,0.107879 0.1715,0.234547 0.50646,0.246027 0.76169,0.12767 0.20461,0.695989 -0.0864,0.944865 0.10194,0.564722 -0.85897,0.190674 -0.60068,0.857184 -0.32672,0.428178 -1.14386,-0.425273 -0.95926,0.312778 -0.0268,0.201751 0.18309,0.956252 -0.30493,0.655645 -0.49755,-0.0842 -0.48791,0.593745 -1.04694,0.526086 -0.36505,0.458199 -0.90243,-0.653905 -0.97234,0.234253 -0.0144,0.367803 0.34485,0.567989 0.23556,0.934398 -0.11364,0.345163 -0.67085,0.593792 -1.06003,0.350727 -0.40745,0.445125 -1.05494,-0.452645 -1.27334,0.08244 0.0224,0.625639 -0.38334,-0.09225 -0.70538,0.219857 -0.31602,-0.02722 -0.20761,-0.403531 -0.59283,-0.109928 -0.31639,-0.331051 -0.4911,0.508536 -0.63864,-0.219858 -0.33258,0.11331 -0.12403,0.570265 -0.34418,0.749877 -0.43012,-0.139996 -0.61875,0.515122 -0.3769,0.882042 -0.16344,0.291925 0.47632,0.609829 0.68968,0.450188 0.13758,0.23638 0.71739,0.241315 0.53655,0.769502 -0.0276,0.02936 0.29029,0.304365 0.17667,0.528708 0.3286,0.501242 -0.60433,0.161953 -0.0301,0.498605 0.32421,0.648697 -0.53832,0.409318 -0.64256,0.802221 0.4714,0.145488 0.1638,0.746574 0.75903,0.601994 0.3667,-0.309795 0.73906,0.231683 0.90298,0.515613 -0.23734,0.349576 -1.02031,-0.08821 -1.09667,0.486831 -0.40182,0.06538 -0.51768,0.317316 -0.99489,0.347471 -0.0512,0.755172 1.57821,2.074235 2.46661,1.135079 1.02933,-5.16e-4 2.22388,1.381013 2.64015,0.05645 0.58321,-0.93466 2.77636,0.382849 2.16193,-0.617696 -0.77149,-1.195703 -0.34864,-1.873584 -0.68444,-2.795335 0.26011,-0.871327 0.41588,-0.774034 0.44495,-1.973485 0.11564,0.32765 1.91313,-1.520028 2.66447,-1.974795 1.19761,-0.588537 2.44789,-2.001951 0.46328,-0.446255 0.19196,-0.585301 2.83197,-1.691165 1.50367,-0.998526 0.43989,-0.802377 0.73052,0.702348 1.25502,0.777357 z m -11.71921,7.412351 c 0.40203,0.552766 -0.43343,0.356178 0,0 z"
       id="Languedoc-roussillon" />
    <path
       style="fill:#000000;stroke-width:0.051617"
       d="m 61.495748,48.141581 c -0.94329,0.07328 -0.14615,0.164968 -0.89121,0.476358 -0.54406,-0.08386 -0.49801,-0.493588 -1.02469,-0.545716 -0.0909,0.266731 -0.57546,1.124106 0.27612,0.834932 0.0558,0.341441 0.41018,0.584088 0.2395,1.027313 -0.0294,0.432726 -1.37799,0.439152 -0.99067,0.214623 -0.31551,-0.05458 -1.11548,0.126065 -0.88729,0.247344 -0.31254,-0.0218 0.0647,0.417855 -0.34418,0.441021 -0.23891,0.1829 -0.7684,-0.06328 -0.58628,0.392604 0.0269,0.466376 -0.55633,0.58956 -0.95534,0.452806 0.0979,0.436442 -0.48755,0.768686 0.11123,1.061334 -0.1694,0.131355 -0.34925,0.529348 -0.67396,0.23687 -0.52572,-0.317543 -0.43056,0.13455 -0.21724,0.389987 -0.39705,0.04892 -0.27515,0.804978 -0.30231,0.408307 0.2761,0.262875 0.66742,0.206081 1.02732,0.337642 -0.24442,0.380128 0.44072,0.282913 0.22771,0.66219 -0.0232,0.45601 0.002,0.563962 -0.13239,0.633723 -0.29808,0.07462 -0.39536,-0.538325 -0.36884,0.06773 -0.25822,0.332502 -0.72975,0.414785 -0.91738,0.01701 -0.39341,0.04672 -0.01,-0.673499 -0.55881,-0.418779 -0.26371,-0.326591 -0.66941,0.18401 -0.86503,-0.282675 -0.0168,-0.266778 0.28719,-0.777435 -0.19369,-0.265658 -0.39563,-0.347491 -0.7398,0.175126 -1.20398,0.146572 -0.31761,0.498022 -0.503,0.02239 -0.45804,-0.336331 -0.41487,-0.427859 -1.02955,0.0307 -0.57843,0.503844 0.14359,0.15179 0.32995,0.550382 0.14919,0.956639 0.174,0.196361 0.48879,0.265002 0.59937,0.667429 0.38335,0.356782 -0.3285,0.570063 -0.52609,0.923924 -0.4829,0.279687 -0.29699,0.410159 -0.36774,0.933086 -0.3016,0.427198 -0.0422,0.957227 -0.70276,0.630786 -0.49128,-0.156859 -0.90121,2.463309 -0.36643,0.900371 -0.32586,0.219899 -0.84974,0.409132 -1.14509,0.765574 1.38815,-0.271093 2.02634,1.495541 2.97201,0.790442 -1.5559,-2.468837 -0.27032,-0.927274 0.27874,-0.221168 1.45048,0.457858 0.47232,-1.509076 1.35449,-0.761651 1.56952,0.30022 -1.99724,1.567336 0.74725,1.283819 0.70973,0.250843 0.91157,1.478848 2.27972,1.202671 0.62153,0.346392 0.62099,1.296264 1.25895,0.738093 -0.18217,-0.670113 1.17259,0.344172 1.21706,0.30885 0.28611,-0.877525 1.11983,-0.21196 1.81253,-0.896448 0.96283,0.132005 0.0791,-1.070429 0.6491,-0.994593 0.52351,-0.968666 1.55669,-0.847908 1.96694,-1.914594 0.93783,-0.09545 1.18206,-1.291577 1.97611,-1.338776 0.91742,-0.26975 0.62364,-0.883652 1.2066,-1.828223 0.84575,-0.394262 0.74958,-2.2983 -0.25258,-1.486659 -1.11134,0.580898 -1.95932,-0.594029 -2.93975,-0.850287 -0.77069,-1.139745 -0.66863,-1.956848 -0.0938,-3.159504 1.26769,-0.422532 -0.24639,-1.723911 -1.1765,-1.910666 0.30591,-0.928255 -0.54206,-0.661499 -0.62948,-1.442165 z"
       id="Provence-alpes-cote-d_azur" />
    <path
       style="fill:#000000;stroke-width:0.051617"
       d="m 58.591798,38.109259 c -0.55331,0.47245 -0.77224,1.438486 -1.65286,1.205291 -0.42658,0.180367 -0.29437,-0.670123 -0.76297,-0.463271 -0.0662,0.441656 -1.11781,0.749757 -0.82839,0.04973 -0.3491,6.91e-4 -0.27263,0.179841 -0.50646,-0.312774 0.0852,-0.32556 -0.51715,-0.30824 -0.32716,-0.649105 -0.59383,0.108563 -0.50561,-0.82358 -1.03647,-0.35596 -0.39994,0.197767 -1.02139,-0.556505 -1.01423,0.24734 -0.32713,0.676445 -0.41388,1.558612 -0.77867,2.185492 -0.57724,0.0282 -0.0388,-0.596218 -0.51954,-0.664808 0.368,-0.340231 -0.27648,-0.411802 -0.32586,-0.03141 -0.30238,-0.318053 -0.3809,0.165378 -0.67528,-0.154424 -0.72541,-0.381166 -0.23409,0.939592 -0.88859,0.884666 -0.20069,0.114129 -0.36345,-0.362568 -0.38475,-0.119089 -0.23671,0.02725 -0.28133,0.03886 -0.59284,0.06936 -0.23012,-0.349999 -0.81793,0.422094 -0.91868,-0.196302 -0.6797,0.201184 -0.0335,-0.826682 -0.59676,-0.447568 -0.62001,0.06938 -0.0381,0.694452 -0.19499,1.097981 0.11942,0.289555 0.10114,0.698976 0.0877,0.995907 -0.34541,0.144125 -0.94538,0.134808 -0.41747,0.55749 0.0656,0.295652 -0.14351,0.632788 -0.22509,0.933091 0.37278,0.268089 0.42395,0.688618 0.6648,1.168651 0.55308,0.148863 0.75758,0.753051 0.83625,1.202672 0.0621,0.432901 -0.73288,0.491967 -0.407,1.032552 0.12818,-0.624515 0.52718,0.0516 0.70407,-0.12433 0.30855,0.181098 0.49673,-0.392512 0.94748,-0.264352 0.28279,0.26621 0.46335,0.04931 0.76296,0.328476 0.004,0.228152 0.29485,0.765124 0.10731,0.639948 0.56386,-0.251019 0.69817,0.632091 0.34026,0.940937 0.1557,0.531051 -0.22865,0.07909 -0.37036,0.109929 0.39719,0.199597 -0.46054,0.397972 0.0275,0.594143 -0.0525,0.337936 -0.61214,0.209565 -0.36905,0.654338 -0.55233,-0.05848 -0.50288,0.454194 -0.85064,0.761646 -0.37363,-0.04895 -0.66592,0.04118 -0.73417,0.332408 -0.24647,0.153953 -0.45698,-0.03549 -0.46458,0.456728 -0.59253,0.20732 -0.0717,0.930697 -0.009,1.436926 0.41821,0.162361 0.25329,0.912867 0.65826,1.12154 0.11106,0.1984 0.009,0.565123 0.017,0.815301 0.49821,-0.364664 0.68754,0.306414 1.12153,0.379519 -0.0182,-0.461265 0.93301,-0.898379 0.70668,-0.166207 0.34553,0.207356 0.13992,-0.767824 0.63472,-0.285287 0.2532,0.151986 0.77888,0.673205 0.70668,-0.0026 0.55337,-0.102269 0.94266,0.196315 0.89645,0.768195 0.22133,-0.354361 0.58561,-0.202679 0.98936,-0.472435 0.29771,-0.259474 0.51244,0.359549 0.78782,-0.17013 0.24189,0.119618 -0.23576,1.003446 0.3913,0.666118 0.27489,-0.02297 0.68484,0.105707 0.82708,0.194994 -0.0233,0.400295 0.33316,0.461559 0.59938,0.641248 0.39424,-0.07668 0.29362,-0.857426 0.7237,-0.409612 0.2672,-0.169753 0.11235,-0.44275 0.18845,-0.714539 -0.43477,0.02592 -0.15968,-0.624845 -0.65696,-0.431865 -0.27724,-0.142112 -0.73509,-0.156833 -0.65696,-0.641248 -0.16358,-0.432308 0.5916,0.06703 0.14003,-0.450189 -0.10792,-0.720222 0.86016,0.352029 0.93047,-0.293143 0.24491,-0.02516 -0.46615,-0.370316 -0.0471,-0.646488 0.1485,-0.287605 0.002,-0.758316 0.55881,-0.426625 0.26922,-0.137358 0.57641,-0.26751 0.42271,-0.539176 -0.01,-0.618847 0.65916,-0.101556 0.88204,-0.54441 -0.33583,-0.418877 0.87678,-0.629098 0.72632,-0.473741 0.33427,-0.04599 1.50869,0.291533 1.21445,-0.03795 0.22963,-0.407165 -0.18691,-0.690316 -0.12563,-1.10191 -0.8518,0.307514 -0.53806,-0.540373 -0.45935,-0.888592 1.27653,-0.197363 -0.2863,0.230656 1.09668,0.352038 0.28486,0.04118 0.39151,-0.459355 0.83624,-0.431869 0.96505,-0.206288 1.6368,0.05734 2.33416,-0.73673 0.7453,-0.19312 0.98901,-1.877559 -0.15783,-2.206483 0.33149,-1.240848 -1.87306,-1.557586 -0.7265,-2.59516 1.78528,-0.568391 -0.30299,-2.38149 -0.18434,-2.173663 0.26812,-1.503531 -0.55746,-3.346 -2.73041,-2.032018 -0.69479,0.7747 0.18623,1.876368 -1.43773,1.975745 -1.42935,-0.148268 1.68176,-1.359639 0.16621,-2.144923 z"
       id="Rhone-alpes" />
    <g
       id="Departments"
       transform="matrix(0.05161703,0,0,0.05161703,-23.295372,-10.180661)" />
  </g>
</svg>
